<svg width="7" height="12" viewBox="0 0 7 12" fill="none" xmlns="http://www.w3.org/2000/svg">
<path d="M0.41123 0.455671L6.58242 5.62071C6.80586 5.80821 6.80586 6.192 6.58242 6.37803L0.411231 11.5445C0.396053 11.5573 0.37812 11.5649 0.359421 11.5665C0.340722 11.5682 0.321985 11.5639 0.305289 11.554C0.288593 11.5442 0.27459 11.5292 0.264831 11.5107C0.255072 11.4922 0.249938 11.471 0.25 11.4493L0.25 10.3507C0.25 10.276 0.281738 10.2057 0.333789 10.1617L5.30527 6.0001L0.333788 1.83848C0.281737 1.79454 0.25 1.72423 0.25 1.64952L0.25 0.550885C0.25 0.455671 0.343945 0.400007 0.41123 0.455671Z" fill="white"/>
</svg>
