<svg width="8" height="15" viewBox="0 0 8 15" fill="none" xmlns="http://www.w3.org/2000/svg">
<path d="M6.8243 14.3213C6.67491 14.3218 6.5273 14.2888 6.39232 14.2248C6.25734 14.1608 6.13842 14.0673 6.0443 13.9513L1.2143 7.95129C1.06722 7.77236 0.986816 7.54791 0.986816 7.31629C0.986816 7.08466 1.06722 6.86022 1.2143 6.68129L6.2143 0.68129C6.38404 0.477074 6.62795 0.348649 6.89238 0.324269C7.15681 0.29989 7.42009 0.381552 7.6243 0.55129C7.82852 0.721029 7.95694 0.96494 7.98132 1.22937C8.0057 1.49379 7.92404 1.75707 7.7543 1.96129L3.2843 7.32129L7.6043 12.6813C7.72659 12.8281 7.80426 13.0068 7.82814 13.1964C7.85202 13.3859 7.82111 13.5783 7.73905 13.7509C7.65699 13.9234 7.52723 14.0688 7.36512 14.1699C7.20301 14.271 7.01534 14.3235 6.8243 14.3213Z" fill="#E2E2E2"/>
</svg>
