<svg width="707" height="718" viewBox="0 0 707 718" fill="none" xmlns="http://www.w3.org/2000/svg">
<path d="M706.572 717.075L-1.68079 717.503L-1.2522 0.428267L707 0L706.572 717.075ZM-0.824168 716.647L705.715 716.219L706.144 0.856618L-0.395579 1.28489L-0.824168 716.647Z" fill="white" fill-opacity="0.5"/>
<path d="M706.572 715.362L-2.10852 714.505V715.362L706.572 716.219V715.362Z" fill="white" fill-opacity="0.5"/>
<path d="M706.572 643.834L-2.10852 642.978V643.834L706.572 644.691V643.834Z" fill="white" fill-opacity="0.5"/>
<path d="M706.572 572.307L-2.10852 571.45V572.307L706.572 573.163V572.307Z" fill="white" fill-opacity="0.5"/>
<path d="M706.572 500.779L-2.10852 499.923V500.779L706.572 501.636V500.779Z" fill="white" fill-opacity="0.5"/>
<path d="M706.572 429.252L-2.10852 428.395V429.252L706.572 430.108V429.252Z" fill="white" fill-opacity="0.5"/>
<path d="M706.572 357.724L-2.10852 356.867V357.724L706.572 358.581V357.724Z" fill="white" fill-opacity="0.5"/>
<path d="M706.572 286.196L-2.10852 285.34V286.196L706.572 287.053V286.196Z" fill="white" fill-opacity="0.5"/>
<path d="M706.572 214.583L-2.10852 213.726V214.583L706.572 215.44V214.583Z" fill="white" fill-opacity="0.5"/>
<path d="M706.572 143.055L-2.10852 142.199V143.055L706.572 143.912V143.055Z" fill="white" fill-opacity="0.5"/>
<path d="M706.572 71.5277L-2.10852 70.6711V71.5277L706.572 72.3843V71.5277Z" fill="white" fill-opacity="0.5"/>
<path d="M628.277 0.428267H627.42L626.992 716.647H627.848L628.277 0.428267Z" fill="white" fill-opacity="0.5"/>
<path d="M549.639 0.428267H548.783L548.354 716.647H549.211L549.639 0.428267Z" fill="white" fill-opacity="0.5"/>
<path d="M470.916 0.428267H470.06L469.631 716.647H470.488L470.916 0.428267Z" fill="white" fill-opacity="0.5"/>
<path d="M392.193 0.428267H391.336L390.908 716.647H391.764L392.193 0.428267Z" fill="white" fill-opacity="0.5"/>
<path d="M313.556 0.428267H312.699L312.27 716.647H313.127L313.556 0.428267Z" fill="white" fill-opacity="0.5"/>
<path d="M234.832 0.428267H233.975L233.547 716.647H234.404L234.832 0.428267Z" fill="white" fill-opacity="0.5"/>
<path d="M156.109 0.428267H155.252L154.824 716.647H155.68L156.109 0.428267Z" fill="white" fill-opacity="0.5"/>
<path d="M77.4712 0.428267H76.6147L76.1861 716.647H77.0426L77.4712 0.428267Z" fill="white" fill-opacity="0.5"/>
<path d="M-1.2522 0.428267L-2.10852 0.428267L-2.53711 716.647H-1.68054L-1.2522 0.428267Z" fill="white" fill-opacity="0.5"/>
</svg>
