<svg width="53" height="53" viewBox="0 0 53 53" fill="none" xmlns="http://www.w3.org/2000/svg">
<g clip-path="url(#clip0_687_3558)">
<g filter="url(#filter0_d_687_3558)">
<path d="M44.8667 9.91986C41.4879 8.39611 37.8663 7.26986 34.079 6.62944C34.0452 6.62296 34.0103 6.62714 33.9791 6.64138C33.9478 6.65562 33.9218 6.67923 33.9045 6.70894C33.4408 7.52381 32.924 8.58602 32.5618 9.42519C28.5451 8.82505 24.4615 8.82505 20.4447 9.42519C20.0413 8.49517 19.5864 7.58835 19.0822 6.70894C19.0651 6.67887 19.0392 6.65472 19.0081 6.63973C18.9769 6.62474 18.9419 6.61961 18.9077 6.62502C15.1226 7.26544 11.501 8.39169 8.12001 9.91765C8.09092 9.92985 8.06626 9.95065 8.04934 9.97727C1.177 20.0804 -0.706704 29.934 0.218588 39.6639C0.221163 39.6877 0.22856 39.7108 0.240329 39.7317C0.252098 39.7525 0.267993 39.7708 0.287046 39.7854C4.29825 42.7057 8.77221 44.9304 13.5216 46.3662C13.5547 46.3764 13.5901 46.3764 13.6232 46.3661C13.6563 46.3559 13.6855 46.3359 13.7071 46.3088C14.7273 44.9396 15.6372 43.4931 16.4145 41.9738C16.4609 41.8855 16.4167 41.7795 16.324 41.7441C14.8974 41.2069 13.5152 40.5586 12.19 39.8052C12.1662 39.7916 12.1461 39.7723 12.1316 39.7491C12.1171 39.7258 12.1085 39.6993 12.1068 39.672C12.105 39.6446 12.1101 39.6172 12.1215 39.5923C12.133 39.5674 12.1504 39.5457 12.1723 39.5292C12.4505 39.3238 12.7288 39.1096 12.9938 38.8954C13.0177 38.8761 13.0464 38.8639 13.0768 38.86C13.1072 38.8561 13.1381 38.8607 13.166 38.8733C21.8382 42.7688 31.2302 42.7688 39.8008 38.8733C39.8288 38.8599 39.86 38.8547 39.8908 38.8582C39.9217 38.8617 39.9509 38.8739 39.9752 38.8932C40.2402 39.1096 40.5163 39.3238 40.7967 39.5292C40.8188 39.5454 40.8366 39.5668 40.8484 39.5915C40.8601 39.6162 40.8656 39.6434 40.8643 39.6708C40.863 39.6981 40.8549 39.7247 40.8408 39.7482C40.8267 39.7716 40.807 39.7912 40.7835 39.8052C39.4629 40.5649 38.0893 41.2075 36.6473 41.7419C36.6251 41.75 36.6049 41.7626 36.5881 41.7791C36.5712 41.7956 36.5581 41.8154 36.5495 41.8374C36.5409 41.8593 36.5371 41.8828 36.5384 41.9064C36.5396 41.9299 36.5459 41.9529 36.5567 41.9738C37.3517 43.4909 38.2616 44.9352 39.2619 46.3066C39.2827 46.3347 39.3117 46.3557 39.3449 46.3668C39.3781 46.3779 39.4139 46.3784 39.4474 46.3684C44.205 44.9366 48.6862 42.7109 52.7018 39.7854C52.7214 39.7717 52.7379 39.7539 52.7501 39.7334C52.7623 39.7128 52.7699 39.6899 52.7725 39.6661C53.8767 28.4169 50.9219 18.6428 44.9351 9.98169C44.9205 9.95354 44.8962 9.9316 44.8667 9.91986ZM17.7108 33.7389C15.1005 33.7389 12.9474 31.3782 12.9474 28.4831C12.9474 25.5858 15.0586 23.2273 17.7108 23.2273C20.3829 23.2273 22.5161 25.6056 22.4742 28.4831C22.4742 31.3804 20.363 33.7389 17.7108 33.7389ZM35.3223 33.7389C32.7098 33.7389 30.5589 31.3782 30.5589 28.4831C30.5589 25.5858 32.6678 23.2273 35.3223 23.2273C37.9943 23.2273 40.1276 25.6056 40.0856 28.4831C40.0856 31.3804 37.9966 33.7389 35.3223 33.7389Z" fill="url(#paint0_linear_687_3558)"/>
</g>
</g>
<defs>
<filter id="filter0_d_687_3558" x="-4.0011" y="6.62292" width="61.0016" height="47.7526" filterUnits="userSpaceOnUse" color-interpolation-filters="sRGB">
<feFlood flood-opacity="0" result="BackgroundImageFix"/>
<feColorMatrix in="SourceAlpha" type="matrix" values="0 0 0 0 0 0 0 0 0 0 0 0 0 0 0 0 0 0 127 0" result="hardAlpha"/>
<feOffset dy="4"/>
<feGaussianBlur stdDeviation="2"/>
<feComposite in2="hardAlpha" operator="out"/>
<feColorMatrix type="matrix" values="0 0 0 0 1 0 0 0 0 1 0 0 0 0 1 0 0 0 0.25 0"/>
<feBlend mode="normal" in2="BackgroundImageFix" result="effect1_dropShadow_687_3558"/>
<feBlend mode="normal" in="SourceGraphic" in2="effect1_dropShadow_687_3558" result="shape"/>
</filter>
<linearGradient id="paint0_linear_687_3558" x1="26.4997" y1="6.62292" x2="26.4997" y2="46.3755" gradientUnits="userSpaceOnUse">
<stop stop-color="#C3C3C3"/>
<stop offset="1" stop-color="white"/>
</linearGradient>
<clipPath id="clip0_687_3558">
<rect width="53" height="53" fill="white"/>
</clipPath>
</defs>
</svg>
