<svg width="48" height="48" viewBox="0 0 48 48" fill="none" xmlns="http://www.w3.org/2000/svg">
<path d="M38.1021 12.8534C35.5243 10.7689 32.5399 9.47557 29.4088 8.45068C29.6354 7.98002 29.9492 7.87291 30.4492 7.92046C33.835 8.23424 36.8616 9.47202 39.6212 11.4111C39.9017 11.6101 40.1303 11.8735 40.2879 12.1791C42.2728 16.1654 43.6265 20.3645 44.4861 24.7298C44.9864 27.3028 45.2576 29.9151 45.2968 32.536C45.2944 32.8464 45.195 33.1482 45.0123 33.3991C43.207 35.7605 40.7941 37.2214 37.9492 37.9538C36.8416 38.2391 35.6825 38.3342 34.5461 38.4925C34.3856 38.5147 34.1416 38.4551 34.0452 38.3409C33.2994 37.4622 32.5785 36.5631 31.8096 35.6125C34.3954 34.7956 36.6336 33.536 38.3701 31.2889C28.859 36.7827 19.463 36.6133 10.0896 31.396C10.2256 31.7862 10.6879 32.3534 11.7159 33.1471C12.3907 33.667 13.107 34.1306 13.8576 34.5334C14.5888 34.9258 15.3794 35.2076 16.1812 35.5556C16.1159 35.6556 16.0523 35.7729 15.9705 35.8756C15.3483 36.6529 14.731 37.4351 14.0888 38.1956C13.9625 38.3454 13.7292 38.5067 13.5554 38.4969C11.2621 38.3809 9.06031 37.8822 7.0252 36.7858C5.59453 36.0147 4.33098 35.0271 3.29186 33.7636C2.91898 33.3107 2.68609 32.86 2.70964 32.2302C2.90609 27.0205 3.87898 21.9636 5.68298 17.0747C6.29853 15.4071 7.04964 13.7889 7.77186 12.1622C7.89809 11.8778 8.14564 11.6098 8.40298 11.4267C10.7554 9.75024 13.3443 8.59868 16.2034 8.0978C16.7467 7.999 17.2962 7.93767 17.8479 7.91424C18.0634 7.90668 18.2852 8.06713 18.4883 8.22535C15.103 9.33957 11.9052 10.7062 9.04831 12.9974C18.7848 8.34535 28.4301 8.12713 38.1021 12.8534ZM17.2248 29.6187C18.0208 29.6245 18.7933 29.3484 19.4052 28.8391C20.467 27.9716 20.8159 26.8116 20.9714 25.4791C21.2981 22.6791 18.135 20.6387 15.6968 21.7978C13.9745 22.616 13.0608 24.7125 13.6079 26.6867C14.1003 28.4587 15.5359 29.6222 17.2248 29.6187ZM30.5136 29.6751C30.9403 29.5769 31.3865 29.5294 31.7896 29.3716C34.2625 28.404 35.0625 25.0974 33.3736 22.8902C32.031 21.136 29.5212 20.9658 27.9763 22.5396C26.9661 23.5689 26.6514 24.8276 26.8248 26.236C27.0536 28.1036 28.687 29.6102 30.5123 29.6751H30.5136Z" fill="white"/>
</svg>
