<svg width="103" height="103" viewBox="0 0 103 103" fill="none" xmlns="http://www.w3.org/2000/svg">
<path d="M30.3291 17.7074L30.4344 20.0657L33.9059 28.7244L33.6076 22.9364L30.3291 17.7074Z" fill="#EBFF29"/>
<path d="M33.906 29.0155C33.8475 29.0156 33.7902 28.9981 33.7417 28.9654C33.6932 28.9327 33.6557 28.8863 33.634 28.8321L30.1654 20.1734C30.1516 20.1432 30.1447 20.1105 30.1449 20.0773L30.0367 17.719C30.0349 17.6555 30.0541 17.5931 30.0913 17.5414C30.1284 17.4897 30.1816 17.4516 30.2425 17.4328C30.3035 17.414 30.369 17.4155 30.429 17.4373C30.489 17.459 30.5403 17.4997 30.5749 17.5531L33.8534 22.7937C33.8809 22.8353 33.8961 22.8837 33.8973 22.9335L34.1897 28.7214C34.1912 28.7892 34.169 28.8553 34.1268 28.9084C34.0847 28.9615 34.0252 28.9984 33.9587 29.0126L33.906 29.0155ZM30.727 19.99L33.5229 26.9775L33.3182 23.0208L30.686 18.7963L30.727 19.99Z" fill="#202020"/>
<path d="M30.3297 28.2003L13.937 58.7997V58.8114L15.0718 62.2673L35.6174 73.1648L36.0122 73.3803L39.5306 72.3933L39.5891 72.4283L55.9934 41.8259L55.9466 41.8026L54.7124 38.2885L33.9416 27.2599L30.3297 28.2003Z" fill="#EBFF29"/>
<path d="M36.0119 73.6714C35.9629 73.6717 35.9146 73.6596 35.8715 73.6365L35.4767 73.421L14.934 62.5234C14.8674 62.4882 14.8171 62.4287 14.7936 62.3575L13.6588 58.9045C13.6481 58.8746 13.6431 58.843 13.6442 58.8113C13.6447 58.7602 13.6557 58.7097 13.6764 58.6628L30.069 28.0634C30.0879 28.0278 30.1141 27.9965 30.1458 27.9714C30.1775 27.9463 30.2141 27.9281 30.2533 27.9179L33.8681 26.9775C33.9391 26.9596 34.0143 26.969 34.0787 27.0037L54.8437 38.0323C54.908 38.0667 54.957 38.1238 54.9811 38.1924L56.1803 41.6075C56.2187 41.6438 56.2477 41.6887 56.2651 41.7385C56.2763 41.7756 56.2801 41.8145 56.276 41.853C56.272 41.8915 56.2603 41.9288 56.2417 41.9627L39.8461 72.5651C39.8275 72.5996 39.8022 72.63 39.7715 72.6545C39.7408 72.679 39.7055 72.6971 39.6677 72.7077C39.6115 72.725 39.5514 72.725 39.4951 72.7077L36.0909 73.6627C36.0652 73.6698 36.0385 73.6728 36.0119 73.6714ZM15.3025 62.0663L36.0353 73.0687L39.4103 72.1196L55.6392 41.8404L54.4693 38.4865L33.9061 27.5685L30.5253 28.4419L14.2496 58.8317L15.3025 62.0663Z" fill="#202020"/>
<path d="M12.9542 65.2806L36.1438 77.5961L35.9537 73.4036L15.1448 62.3633L11.3281 64.4217L34.5147 76.7285" fill="#EBFF29"/>
<path d="M36.1438 77.8872C36.0961 77.8866 36.0492 77.8757 36.0063 77.8552L11.1907 64.6809C11.1442 64.6559 11.1054 64.6189 11.0784 64.5738C11.0514 64.5287 11.0371 64.4772 11.0371 64.4246C11.0371 64.3721 11.0514 64.3206 11.0784 64.2755C11.1054 64.2304 11.1442 64.1934 11.1907 64.1684L14.9927 62.1071C15.0372 62.0816 15.0876 62.0681 15.1389 62.0681C15.1903 62.0681 15.2407 62.0816 15.2852 62.1071L36.0911 73.1503C36.1361 73.1741 36.1741 73.2092 36.2013 73.2521C36.2285 73.295 36.2439 73.3442 36.2461 73.3948L36.4391 77.5873C36.4413 77.6388 36.4297 77.6899 36.4055 77.7354C36.3814 77.7809 36.3456 77.8192 36.3017 77.8465C36.254 77.8747 36.1992 77.8888 36.1438 77.8872ZM34.699 76.4985L35.8279 77.0982L35.667 73.5841L15.1448 62.6923L11.9452 64.4217L13.042 65.004C13.0596 65.0078 13.0765 65.0147 13.0917 65.0244L34.6551 76.4693L34.699 76.4985Z" fill="#202020"/>
<path d="M8.14307 66.1628L9.23396 70.3203L31.9438 82.3854L32.3855 82.6125L36.4536 81.1946L38.0944 78.1318L9.78379 63.1116L8.14307 66.1628Z" fill="#EBFF29"/>
<path d="M32.3855 82.9036C32.3398 82.9034 32.2947 82.8924 32.2539 82.8716L31.8094 82.6445L9.09657 70.5765C9.06077 70.5577 9.02928 70.5317 9.00411 70.5001C8.97894 70.4685 8.96063 70.4321 8.95034 70.3931L7.86237 66.2356C7.84358 66.1652 7.85192 66.0904 7.88577 66.0259L9.52649 62.9747C9.56308 62.9069 9.62516 62.8563 9.69915 62.8339C9.77315 62.8115 9.85302 62.8193 9.92132 62.8554L38.2319 77.8756C38.2996 77.9122 38.35 77.9739 38.3723 78.0473C38.3951 78.1209 38.3878 78.2004 38.3518 78.2686L36.714 81.3315C36.6787 81.396 36.6202 81.4449 36.5502 81.4683L32.482 82.8862C32.4512 82.8978 32.4185 82.9038 32.3855 82.9036ZM9.48262 70.1107L32.0814 82.1175L32.4089 82.2835L36.249 80.9442L37.6967 78.2424L9.91255 63.4959L8.46485 66.1861L9.48262 70.1107Z" fill="#202020"/>
<path d="M35.234 23.804L58.4235 36.1224L54.7122 38.2303L33.9062 27.1871L33.6079 22.9364L56.7945 35.2519" fill="#EBFF29"/>
<path d="M54.7154 38.5214C54.6664 38.5217 54.6181 38.5097 54.575 38.4865L33.7691 27.4462C33.7249 27.423 33.6874 27.3888 33.6603 27.347C33.6332 27.3052 33.6172 27.2572 33.614 27.2075L33.3216 22.9568C33.3178 22.9049 33.328 22.853 33.3511 22.8064C33.3742 22.7599 33.4095 22.7203 33.4532 22.6918C33.4977 22.6663 33.5481 22.6528 33.5994 22.6528C33.6508 22.6528 33.7012 22.6663 33.7457 22.6918L56.9323 35.0102L56.9791 35.0393L58.5613 35.8778C58.6076 35.9023 58.6464 35.9388 58.6736 35.9834C58.7009 36.0279 58.7156 36.079 58.7163 36.1311C58.7173 36.1837 58.7039 36.2356 58.6776 36.2812C58.6514 36.3268 58.6132 36.3645 58.5671 36.3902L54.8587 38.4981C54.8135 38.5172 54.7643 38.5252 54.7154 38.5214ZM34.1873 27.0212L54.7095 37.9129L57.8184 36.1457L35.0968 24.0631L35.053 24.034L33.9358 23.4517L34.1873 27.0212Z" fill="#202020"/>
<path d="M33.1871 19.4222L37.2553 18.0043L59.9798 30.0694L60.4097 30.2965L61.4977 34.4541L59.8599 37.514L31.5493 22.4822L33.1871 19.4222Z" fill="#EBFF29"/>
<path d="M59.8595 37.7935C59.8117 37.7942 59.7645 37.7832 59.722 37.7615L31.4114 22.7267C31.3433 22.6903 31.2924 22.6285 31.2699 22.5549C31.2475 22.4812 31.2552 22.4017 31.2915 22.3337L32.9293 19.2738C32.965 19.21 33.0219 19.1606 33.0901 19.134L37.1583 17.719C37.1964 17.7057 37.2369 17.7004 37.2772 17.7034C37.3174 17.7064 37.3566 17.7177 37.3923 17.7365L60.5467 30.0287C60.5825 30.0475 60.614 30.0735 60.6392 30.1051C60.6644 30.1367 60.6827 30.1731 60.693 30.2121L61.7809 34.3697C61.7988 34.4404 61.7894 34.5152 61.7546 34.5793L60.1168 37.6392C60.0919 37.6857 60.0549 37.7246 60.0096 37.7518C59.9642 37.779 59.9124 37.7934 59.8595 37.7935ZM31.9437 22.3628L59.7278 37.121L61.1902 34.4163L60.1607 30.4945L59.8448 30.3286L37.2373 18.3217L33.3972 19.6581L31.9437 22.3628Z" fill="#202020"/>
<path d="M49.8335 53.2842L45.9155 60.5981L93.8353 86.0374L97.7533 78.7234L49.8335 53.2842Z" fill="#EBFF29"/>
<path d="M93.8352 86.3363C93.7872 86.336 93.74 86.324 93.6977 86.3013L45.7803 60.8581C45.7462 60.8403 45.716 60.8159 45.6914 60.7864C45.6668 60.757 45.6483 60.723 45.637 60.6863C45.615 60.6124 45.6235 60.5328 45.6604 60.4651L49.5794 53.1515C49.616 53.0837 49.6781 53.033 49.7521 53.0107C49.8261 52.9883 49.9059 52.996 49.9742 53.0321L97.8917 78.4753C97.9257 78.4932 97.9559 78.5175 97.9805 78.547C98.0051 78.5765 98.0236 78.6105 98.035 78.6471C98.0578 78.7207 98.0504 78.8002 98.0145 78.8684L94.0955 86.182C94.0704 86.2289 94.0328 86.2681 93.987 86.2953C93.9411 86.3225 93.8886 86.3367 93.8352 86.3363ZM46.3038 60.4825L93.7065 85.6521L97.3594 78.8451L49.9567 53.6814L46.3038 60.4825Z" fill="#202020"/>
<path d="M26.9541 19.8735L30.8059 19.3989L33.7744 27.0939L33.906 27.1871L30.3291 28.2003L26.9541 19.8735Z" fill="#EBFF29"/>
<path d="M30.3291 28.4914C30.2705 28.4915 30.2133 28.474 30.1648 28.4413C30.1163 28.4086 30.0788 28.3622 30.0571 28.308L26.6821 19.9842C26.6687 19.9444 26.6642 19.9022 26.6687 19.8605C26.6732 19.8188 26.6868 19.7785 26.7084 19.7425C26.731 19.7038 26.7623 19.6707 26.7998 19.646C26.8374 19.6212 26.8802 19.6054 26.9248 19.5998L30.7766 19.1224C30.8418 19.1143 30.9078 19.1282 30.964 19.162C31.0203 19.1958 31.0635 19.2475 31.0866 19.3087L34.0112 26.9222L34.0727 26.9658C34.1178 26.9979 34.1529 27.042 34.1738 27.0931C34.1947 27.1442 34.2006 27.2002 34.1908 27.2545C34.181 27.3088 34.1559 27.3592 34.1184 27.3999C34.0809 27.4405 34.0326 27.4697 33.9791 27.4841L30.4081 28.4769C30.3827 28.486 30.3561 28.4909 30.3291 28.4914ZM27.3664 20.1181L30.5104 27.848L33.4351 27.0212L30.6187 19.7192L27.3664 20.1181Z" fill="#202020"/>
<path d="M31.5487 22.3279L28.3784 13.9429L29.8612 10.6675L33.3562 19.5416" fill="#EBFF29"/>
<path d="M31.5487 22.619C31.489 22.6192 31.4306 22.6012 31.3814 22.5673C31.3323 22.5335 31.2947 22.4855 31.2738 22.4298L28.1035 14.0448C28.0742 13.9739 28.0742 13.8944 28.1035 13.8235L29.5863 10.5481C29.6099 10.4956 29.6487 10.4513 29.6976 10.4208C29.7465 10.3902 29.8035 10.3747 29.8612 10.3763C29.9183 10.378 29.9736 10.3962 30.0204 10.4288C30.0671 10.4614 30.1033 10.5069 30.1244 10.5598L33.634 19.4339C33.65 19.4698 33.6585 19.5086 33.6591 19.5479C33.6596 19.5872 33.6522 19.6262 33.6372 19.6625C33.6222 19.6988 33.5999 19.7318 33.5718 19.7594C33.5437 19.7869 33.5102 19.8085 33.4735 19.8229C33.4367 19.8373 33.3974 19.8441 33.358 19.8429C33.3185 19.8417 33.2797 19.8326 33.2439 19.8162C33.2081 19.7997 33.176 19.7761 33.1495 19.7469C33.1231 19.7178 33.1028 19.6836 33.09 19.6464L29.8436 11.4157L28.6943 13.9516L31.8236 22.226C31.8372 22.2619 31.8435 22.3001 31.8422 22.3385C31.8408 22.3769 31.8319 22.4146 31.8158 22.4495C31.7998 22.4844 31.777 22.5158 31.7487 22.5419C31.7204 22.568 31.6873 22.5883 31.6511 22.6015C31.6183 22.6134 31.5836 22.6193 31.5487 22.619Z" fill="#202020"/>
<path d="M97.8007 78.717L94.6303 70.332L53.0389 47.3431L49.8423 53.2971L97.8007 78.717Z" fill="#EBFF29"/>
<path d="M97.801 79.0081C97.753 79.0079 97.7058 78.9959 97.6635 78.9732L49.6993 53.5562C49.6655 53.5377 49.6357 53.5128 49.6116 53.4828C49.5875 53.4528 49.5696 53.4184 49.5589 53.3815C49.5361 53.3079 49.5435 53.2284 49.5794 53.1602L52.7731 47.2063C52.7914 47.1721 52.8163 47.1419 52.8464 47.1174C52.8765 47.0929 52.9113 47.0746 52.9486 47.0636C52.9858 47.0524 53.0249 47.0487 53.0636 47.0527C53.1022 47.0567 53.1397 47.0683 53.1738 47.0869L94.7652 70.0874C94.8257 70.1208 94.8723 70.1745 94.8968 70.2388L98.07 78.6151C98.0906 78.6704 98.0938 78.7307 98.0792 78.7879C98.0645 78.8451 98.0328 78.8965 97.9882 78.9354C97.9364 78.9809 97.87 79.0067 97.801 79.0081ZM50.2404 53.1777L97.2541 78.0969L94.3938 70.5271L53.1562 47.7333L50.2404 53.1777Z" fill="#202020"/>
<path d="M37.2549 18.0044L33.6079 9.17682L57.3356 21.7689L60.5059 30.3926L37.2549 18.0044Z" fill="#EBFF29"/>
<path d="M60.5056 30.6838C60.4566 30.684 60.4083 30.672 60.3652 30.6488L37.1172 18.2606C37.0577 18.2286 37.0112 18.1772 36.9856 18.115L33.3356 9.28746C33.3127 9.23221 33.3074 9.17127 33.3205 9.11294C33.3336 9.0546 33.3644 9.00168 33.4087 8.96137C33.4536 8.92067 33.5101 8.89487 33.5704 8.88757C33.6306 8.88027 33.6917 8.89182 33.7451 8.92061L57.4698 21.5127C57.5341 21.5443 57.5834 21.5997 57.6073 21.667L60.7805 30.2907C60.8007 30.3463 60.8034 30.4068 60.7883 30.464C60.7731 30.5212 60.7408 30.5725 60.6957 30.611C60.6431 30.6571 60.5757 30.6829 60.5056 30.6838ZM37.4857 17.7976L59.9674 29.7754L57.0984 21.9727L34.1867 9.81443L37.4857 17.7976Z" fill="#202020"/>
<path d="M33.5464 9.17682L29.8613 10.6675L33.5464 20.0657L37.4713 18.575L33.5464 9.17682Z" fill="#EBFF29"/>
<path d="M33.5466 20.3568C33.4877 20.3566 33.4302 20.3388 33.3817 20.3055C33.3331 20.2723 33.2958 20.2252 33.2746 20.1705L29.5896 10.7723C29.5615 10.7012 29.5627 10.622 29.5928 10.5517C29.6229 10.4815 29.6795 10.4258 29.7504 10.3967L33.4355 8.90897C33.5065 8.88089 33.5858 8.88162 33.6563 8.91101C33.7268 8.94039 33.783 8.9961 33.8127 9.06619L37.7376 18.4644C37.7529 18.5003 37.7608 18.5389 37.7608 18.5779C37.7608 18.6169 37.7529 18.6555 37.7376 18.6915C37.7223 18.7272 37.6999 18.7596 37.6717 18.7866C37.6436 18.8136 37.6103 18.8347 37.5738 18.8487L33.6519 20.3248C33.6194 20.3426 33.5835 20.3535 33.5466 20.3568ZM30.2388 10.8276L33.7279 19.6901L37.1 18.412L33.3887 9.5524L30.2388 10.8276Z" fill="#202020"/>
<path d="M15.5044 62.1479L12.3195 53.5358L11.8896 53.9754L8.73096 55.7747L11.8896 64.1597" fill="#EBFF29"/>
<path d="M11.8892 64.4509C11.8298 64.4513 11.7717 64.4337 11.7226 64.4004C11.6735 64.3671 11.6357 64.3197 11.6143 64.2645L8.4557 55.8766C8.43125 55.8119 8.43078 55.7405 8.45436 55.6754C8.47794 55.6104 8.52404 55.5558 8.58438 55.5214L11.7079 53.7454L12.1115 53.332C12.1459 53.297 12.1885 53.2712 12.2356 53.2569C12.2826 53.2427 12.3325 53.2405 12.3806 53.2505C12.4291 53.2609 12.4742 53.2835 12.5116 53.3161C12.5489 53.3487 12.5773 53.3903 12.5941 53.4368L15.7761 62.0489C15.8026 62.1211 15.7993 62.2008 15.767 62.2707C15.7346 62.3405 15.6759 62.3947 15.6035 62.4216C15.531 62.4479 15.4509 62.4447 15.3808 62.4125C15.3107 62.3803 15.2562 62.3218 15.2292 62.2498L12.2051 54.0715L12.0998 54.1792C12.0812 54.1991 12.0594 54.2158 12.0355 54.2287L9.09035 55.9057L12.1642 64.0578C12.1777 64.0938 12.184 64.132 12.1827 64.1704C12.1813 64.2087 12.1724 64.2464 12.1563 64.2813C12.1403 64.3162 12.1175 64.3476 12.0892 64.3737C12.061 64.3998 12.0278 64.4201 11.9916 64.4334C11.9588 64.4453 11.9241 64.4512 11.8892 64.4509Z" fill="#202020"/>
<path d="M8.46761 66.614L9.9738 63.458L11.8894 64.4334L8.73083 55.7747L6.68357 54.7266L9.85682 63.1116L6.68357 54.7266L4.97266 57.8127L8.14297 66.1977L4.97266 57.8127L5.99043 61.8975L9.16075 70.2825" fill="#EBFF29"/>
<path d="M9.16067 70.5736C9.10175 70.5734 9.04426 70.5556 8.99573 70.5223C8.9472 70.4891 8.90988 70.442 8.88868 70.3873L5.71543 61.9994V61.9673L4.69766 57.8913C4.68377 57.8227 4.69519 57.7513 4.72983 57.6904L6.43782 54.6101C6.44776 54.5924 6.45952 54.5758 6.47292 54.5606C6.48628 54.5438 6.50205 54.5291 6.51971 54.5169C6.54873 54.4974 6.58019 54.4817 6.6133 54.4703C6.63856 54.4673 6.66408 54.4673 6.68934 54.4703C6.72433 54.4687 6.75925 54.4747 6.7917 54.4878C6.80631 54.4911 6.82018 54.497 6.83265 54.5053L8.8799 55.5505C8.94529 55.5844 8.99543 55.6415 9.02028 55.7106L12.1789 64.3693C12.2 64.4245 12.2036 64.4849 12.1894 64.5422C12.1752 64.5996 12.1438 64.6513 12.0994 64.6905C12.0549 64.7297 11.9996 64.7545 11.9406 64.7616C11.8817 64.7687 11.822 64.7578 11.7695 64.7303L10.1258 63.8889L8.74537 66.7742C8.73068 66.8114 8.70846 66.8452 8.68007 66.8735C8.65169 66.9018 8.61775 66.9239 8.58038 66.9386C8.54301 66.9533 8.50301 66.9601 8.46287 66.9587C8.42273 66.9573 8.38331 66.9477 8.34706 66.9304C8.31082 66.9132 8.27853 66.8887 8.25221 66.8585C8.22589 66.8283 8.20611 66.793 8.19409 66.7549C8.18206 66.7167 8.17807 66.6765 8.18234 66.6367C8.18662 66.597 8.19907 66.5585 8.21893 66.5238C8.16003 66.5361 8.09875 66.53 8.04345 66.5063L9.44728 70.2213C9.46085 70.2573 9.46714 70.2955 9.4658 70.3339C9.46446 70.3722 9.45552 70.4099 9.43948 70.4448C9.42344 70.4797 9.40063 70.5111 9.37236 70.5372C9.34408 70.5633 9.3109 70.5836 9.27473 70.5969C9.23552 70.5968 9.19674 70.5889 9.16067 70.5736ZM5.29428 57.836L8.40611 66.0638L9.6988 63.359C9.64533 63.3253 9.60428 63.2753 9.58182 63.2164L6.63377 55.4195L5.29428 57.836ZM10.1317 63.2105L11.36 63.8365L8.49385 55.9756L7.22455 55.3263L10.1287 63.0038C10.1408 63.0365 10.1477 63.0709 10.1492 63.1057C10.1499 63.1414 10.1439 63.177 10.1317 63.2105Z" fill="#202020"/>
<path d="M30.3291 28.4041L26.954 19.8735L10.7632 50.3187L13.9364 58.7066" fill="#EBFF29"/>
<path d="M13.9364 58.9977C13.8766 58.9979 13.8183 58.9799 13.7691 58.946C13.72 58.9122 13.6824 58.8642 13.6615 58.8084L10.4912 50.4235C10.4765 50.3849 10.4702 50.3437 10.4727 50.3025C10.4752 50.2614 10.4865 50.2212 10.5058 50.1847L26.7083 19.7425C26.7343 19.6928 26.7741 19.6516 26.823 19.6238C26.8718 19.5961 26.9277 19.5829 26.9839 19.586C27.0401 19.5891 27.0942 19.6082 27.1397 19.6412C27.1853 19.6741 27.2203 19.7194 27.2406 19.7716L30.6157 28.2993C30.6298 28.335 30.6368 28.3732 30.636 28.4116C30.6353 28.45 30.627 28.4879 30.6115 28.5231C30.596 28.5583 30.5736 28.59 30.5457 28.6166C30.5179 28.6431 30.485 28.6639 30.449 28.6778C30.3768 28.7054 30.2966 28.7034 30.2259 28.6723C30.1552 28.6412 30.0998 28.5835 30.0717 28.5118L26.9131 20.5694L11.0849 50.339L14.2084 58.6017C14.222 58.6375 14.2285 58.6756 14.2273 58.7138C14.2262 58.752 14.2175 58.7896 14.2017 58.8245C14.186 58.8594 14.1635 58.8908 14.1355 58.917C14.1075 58.9433 14.0747 58.9637 14.0388 58.9773C14.0063 58.9908 13.9715 58.9977 13.9364 58.9977Z" fill="#202020"/>
<path d="M30.3297 28.2003L13.937 58.7997V58.8114L15.0718 62.2673L35.6174 73.1648L36.0122 73.3803L39.5306 72.3933L39.5891 72.4283L55.9934 41.8259L55.9466 41.8026L54.7124 38.2885L33.9416 27.2599L30.3297 28.2003Z" fill="#FCFCFC" stroke="#202020" stroke-width="2" stroke-linecap="round" stroke-linejoin="round"/>
<path d="M12.9542 65.2806L36.1438 77.596L35.9537 73.4035L15.1448 62.3633L11.3281 64.4217L34.5147 76.7284" fill="#FCFCFC"/>
<path d="M12.9542 65.2806L36.1438 77.596L35.9537 73.4035L15.1448 62.3633L11.3281 64.4217L34.5147 76.7284" stroke="#202020" stroke-width="2" stroke-linecap="round" stroke-linejoin="round"/>
<path d="M8.14307 66.1628L9.23396 70.3203L31.9438 82.3854L32.3855 82.6125L36.4536 81.1946L38.0944 78.1318L9.78379 63.1116L8.14307 66.1628Z" fill="#FCFCFC" stroke="#202020" stroke-width="2" stroke-linecap="round" stroke-linejoin="round"/>
<path d="M35.234 23.804L58.4235 36.1223L54.7122 38.2302L33.9062 27.1871L33.6079 22.9363L56.7945 35.2518" fill="#FCFCFC"/>
<path d="M35.234 23.804L58.4235 36.1223L54.7122 38.2302L33.9062 27.1871L33.6079 22.9363L56.7945 35.2518" stroke="#202020" stroke-width="2" stroke-linecap="round" stroke-linejoin="round"/>
<path d="M33.1866 19.4222L37.2548 18.0043L59.9793 30.0694L60.4092 30.2965L61.4972 34.4541L59.8594 37.514L31.5488 22.4822L33.1866 19.4222Z" fill="#FCFCFC" stroke="#202020" stroke-width="2" stroke-linecap="round" stroke-linejoin="round"/>
<path d="M49.8335 53.2841L45.9155 60.598L93.8353 86.0373L97.7533 78.7234L49.8335 53.2841Z" fill="#FCFCFC" stroke="#202020" stroke-width="2" stroke-linecap="round" stroke-linejoin="round"/>
</svg>
