<svg width="388" height="221" viewBox="0 0 388 221" fill="none" xmlns="http://www.w3.org/2000/svg">
<path d="M323.07 204.162H18.15V13.549H323.07V204.162ZM18.3573 203.955H322.862V13.7563H18.3573V203.955Z" fill="white" fill-opacity="0.5"/>
<path d="M322.966 186.628H18.2536V186.836H322.966V186.628Z" fill="white" fill-opacity="0.5"/>
<path d="M322.966 169.322H18.2536V169.53H322.966V169.322Z" fill="white" fill-opacity="0.5"/>
<path d="M322.966 152.017H18.2536V152.224H322.966V152.017Z" fill="white" fill-opacity="0.5"/>
<path d="M322.966 134.711H18.2536V134.918H322.966V134.711Z" fill="white" fill-opacity="0.5"/>
<path d="M322.966 117.405H18.2536V117.612H322.966V117.405Z" fill="white" fill-opacity="0.5"/>
<path d="M322.966 100.099H18.2536V100.306H322.966V100.099Z" fill="white" fill-opacity="0.5"/>
<path d="M322.966 82.7932H18.2536V83.0004H322.966V82.7932Z" fill="white" fill-opacity="0.5"/>
<path d="M322.966 65.4666H18.2536V65.6739H322.966V65.4666Z" fill="white" fill-opacity="0.5"/>
<path d="M322.966 48.1607H18.2536V48.368H322.966V48.1607Z" fill="white" fill-opacity="0.5"/>
<path d="M322.966 30.8549H18.2536V31.0621H322.966V30.8549Z" fill="white" fill-opacity="0.5"/>
<path d="M304.019 13.6526H303.811V204.059H304.019V13.6526Z" fill="white" fill-opacity="0.5"/>
<path d="M284.988 13.6526H284.781V204.059H284.988V13.6526Z" fill="white" fill-opacity="0.5"/>
<path d="M265.937 13.6526H265.73V204.059H265.937V13.6526Z" fill="white" fill-opacity="0.5"/>
<path d="M246.886 13.6526H246.679V204.059H246.886V13.6526Z" fill="white" fill-opacity="0.5"/>
<path d="M227.856 13.6526H227.649V204.059H227.856V13.6526Z" fill="white" fill-opacity="0.5"/>
<path d="M208.805 13.6526H208.598V204.059H208.805V13.6526Z" fill="white" fill-opacity="0.5"/>
<path d="M189.754 13.6526H189.547V204.059H189.754V13.6526Z" fill="white" fill-opacity="0.5"/>
<path d="M170.724 13.6526H170.516V204.059H170.724V13.6526Z" fill="white" fill-opacity="0.5"/>
<path d="M151.673 13.6526H151.466V204.059H151.673V13.6526Z" fill="white" fill-opacity="0.5"/>
<path d="M132.622 13.6526H132.414V204.059H132.622V13.6526Z" fill="white" fill-opacity="0.5"/>
<path d="M113.571 13.6526H113.363V204.059H113.571V13.6526Z" fill="white" fill-opacity="0.5"/>
<path d="M94.5405 13.6526H94.3332V204.059H94.5405V13.6526Z" fill="white" fill-opacity="0.5"/>
<path d="M75.4895 13.6526H75.2822V204.059H75.4895V13.6526Z" fill="white" fill-opacity="0.5"/>
<path d="M56.4385 13.6526H56.2312V204.059H56.4385V13.6526Z" fill="white" fill-opacity="0.5"/>
<path d="M37.4083 13.6526H37.201V204.059H37.4083V13.6526Z" fill="white" fill-opacity="0.5"/>
<path d="M168.787 105.256V128.579C162.415 132.751 155.01 136.949 147.502 139.932C144.172 141.152 140.997 143.011 137.654 144.074C127.244 137.658 116.369 131.846 105.815 125.607C105.107 125.203 104.854 124.771 104.856 123.955C104.879 106.075 104.879 88.1931 104.856 70.3093C104.856 69.4686 105.144 69.0576 105.828 68.6709C110.36 66.099 114.876 63.5015 119.375 60.8785C119.792 60.6357 120.069 60.6301 120.47 60.8599C130.321 66.4907 140.174 72.1134 150.03 77.728C151.48 78.5537 152.975 79.2842 153.726 80.9544C158.654 89.0998 163.623 97.2527 168.787 105.256Z" fill="#595959" stroke="black" stroke-width="0.1" stroke-linejoin="round"/>
<path d="M105.303 69.8011C107.502 71.0491 109.573 72.2167 111.637 73.3956C117.667 76.8368 123.696 80.2806 129.726 83.7268C132.08 85.0719 134.457 86.3797 136.782 87.7734C137.346 88.1395 137.819 88.6304 138.164 89.2082C143.086 97.1394 147.992 105.079 152.882 113.028C153.266 113.648 153.461 114.367 153.442 115.096C153.424 122.082 153.419 129.067 153.429 136.052C153.429 136.564 153.289 136.78 152.801 136.986C147.893 139.093 143 141.244 138.093 143.36C137.845 143.422 137.581 143.383 137.361 143.252C134.055 141.384 130.753 139.51 127.457 137.63C122.923 135.024 118.393 132.408 113.869 129.784C111.195 128.237 108.524 126.681 105.845 125.141C105.4 124.887 105.222 124.592 105.222 124.045C105.236 106.408 105.236 88.7685 105.222 71.1276C105.237 70.7334 105.275 70.3373 105.303 69.8011Z" fill="#E2E2E2" stroke="black" stroke-width="0.1" stroke-linejoin="round"/>
<path d="M115.905 150.454V151.123C115.778 151.173 115.653 151.229 115.532 151.293C111.477 153.639 107.423 155.987 103.371 158.336L84.3256 169.334C78.8443 172.503 73.363 175.667 67.8817 178.826C67.7331 178.894 67.5715 178.929 67.408 178.929C67.2446 178.929 67.083 178.894 66.9343 178.826C65.6898 178.154 64.4827 177.408 63.2569 176.699C59.8622 174.744 56.4644 172.793 53.0635 170.844C52.6076 170.584 52.4319 170.305 52.5515 169.723C53.1794 166.636 53.7306 163.535 54.323 160.445C55.8877 152.255 57.4542 144.067 59.0226 135.882C60.6707 127.288 62.3861 118.705 63.9371 110.1C64.4323 107.137 64.9984 107.003 66.7493 106.041C72.7047 102.766 78.5497 99.2909 84.4247 95.8777C85.8411 95.0575 87.2276 94.1739 88.6179 93.3182H89.1187C89.2644 93.4456 89.4186 93.5629 89.5802 93.6695C94.1098 96.285 98.6486 98.9005 103.16 101.54C103.571 101.798 103.875 102.197 104.015 102.661C104.985 106.398 105.895 110.168 106.818 113.925C109.35 124.225 111.882 134.525 114.416 144.825C114.88 146.699 115.412 148.567 115.905 150.454Z" fill="#E2E2E2" stroke="black" stroke-width="0.1" stroke-miterlimit="10"/>
<path d="M102.111 100.871C101.203 101.338 100.329 101.875 99.4466 102.39C95.885 104.461 92.3271 106.539 88.773 108.623C88.6507 108.709 88.5044 108.754 88.3548 108.753C88.2052 108.751 88.0599 108.702 87.9396 108.613C87.4052 108.277 86.8539 107.972 86.3083 107.659L83.709 106.177C83.582 106.551 83.4736 106.822 83.3914 107.111C82.9317 108.703 82.457 110.287 82.0291 111.892C81.9753 112.123 81.8719 112.34 81.726 112.527C81.5802 112.714 81.3954 112.867 81.1845 112.976C79.7662 113.77 78.3816 114.616 76.9764 115.43C76.3541 115.791 75.7188 116.127 75.1171 116.46C72.9364 115.324 70.9351 113.992 68.6815 112.854C68.6629 113.291 68.6404 113.583 68.6386 113.876C68.6386 115.628 68.5975 117.383 68.6535 119.133C68.6778 119.965 68.362 120.428 67.6482 120.83C64.0324 122.855 55.2312 128.035 54.4277 128.54C54.4277 128.54 52.4544 127.548 51.9106 127.232C50.1261 126.191 39.531 120.153 39.204 120.019V63.8041C40.9717 62.771 42.7338 61.736 44.5053 60.7104C47.5262 58.9567 50.5503 57.2075 53.5774 55.4626C54.6463 54.846 55.7208 54.2426 56.7896 53.6354L66.8634 59.4475C66.9475 59.2046 67.0315 59.014 67.0801 58.8179C68.0911 54.747 69.1057 50.6799 70.0905 46.6053C70.1367 46.3581 70.2382 46.1246 70.3874 45.9221C70.5366 45.7196 70.7295 45.5534 70.9519 45.4358C73.8614 43.7787 76.7391 42.0973 79.6336 40.4159C82.1898 38.9363 84.7573 37.4754 87.3043 35.9752C87.6387 35.7772 87.8854 35.7454 88.2068 35.9322C89.328 36.588 90.4492 37.24 91.5703 37.8789C94.098 39.3386 96.6262 40.7977 99.1551 42.2561C100.377 42.9623 101.584 43.6816 102.806 44.3971V99.289C102.799 99.4097 102.799 99.5307 102.806 99.6514C102.877 100.232 102.648 100.599 102.111 100.871Z" fill="#E2E2E2" stroke="black" stroke-width="0.1" stroke-linecap="round" stroke-linejoin="round"/>
<path d="M67.7042 178.477C68.0163 176.766 68.2928 175.189 68.5937 173.62C69.751 167.592 70.9108 161.563 72.0731 155.534C73.0086 150.676 73.9429 145.819 74.876 140.961C76.4083 132.939 77.9237 124.915 79.4766 116.897C79.5668 116.502 79.804 116.157 80.1399 115.931C85.9102 112.557 91.6924 109.202 97.4864 105.865C99.4634 104.722 101.442 103.584 103.528 102.381C103.647 102.712 103.771 102.977 103.84 103.253C106.456 113.865 109.072 124.476 111.688 135.088C112.936 140.151 114.179 145.214 115.455 150.269C115.588 150.794 115.444 150.999 115.014 151.248C110.042 154.108 105.086 156.994 100.121 159.866C93.1325 163.909 86.1413 167.949 79.1477 171.987C75.6023 174.033 72.0519 176.072 68.4965 178.103C68.3003 178.227 68.0686 178.311 67.7042 178.477Z" fill="#131313" stroke="white" stroke-width="0.1" stroke-miterlimit="10"/>
<path d="M54.4538 127.848C54.4306 127.849 54.408 127.841 54.3903 127.826C54.3808 127.817 54.3733 127.806 54.3682 127.794C54.363 127.781 54.3604 127.768 54.3604 127.755V113.196C54.3604 100.182 54.3604 87.1668 54.3604 74.1504C54.3604 72.5493 54.3866 72.5045 55.7656 71.7105L55.7843 71.6993C60.3157 69.0838 70.7071 63.1298 71.3686 62.7767C71.3822 62.7707 71.3968 62.7675 71.4116 62.7673C71.4228 62.7656 71.4341 62.7656 71.4453 62.7673C71.4577 62.7719 71.4689 62.7791 71.4783 62.7885C71.4876 62.7978 71.4949 62.8091 71.4994 62.8215C72.3216 64.9886 73.0747 67.1838 73.8035 69.3061C74.1772 70.3728 74.5509 71.4788 74.9246 72.5605C75.7001 74.7557 76.4438 76.9079 77.2324 79.1852C77.5762 80.1816 77.9238 81.1848 78.2751 82.1949C78.7534 81.2309 80.2577 75.1461 81.0051 72.1271L81.8647 68.6578C82.9037 64.473 83.9762 60.1481 85.0021 55.8867C85.0842 55.4788 85.2572 55.0947 85.5083 54.7628C85.7593 54.431 86.082 54.1599 86.4522 53.9699C87.0856 53.6206 90.1091 51.8943 93.3119 50.0672C97.5929 47.6255 102.02 45.0996 102.332 44.9502C102.345 44.9442 102.359 44.941 102.373 44.9408C102.39 44.9403 102.407 44.9455 102.421 44.9558C102.435 44.9639 102.446 44.9753 102.454 44.9891C102.462 45.0028 102.466 45.0184 102.466 45.0342V100.259C102.466 100.275 102.462 100.291 102.454 100.306C102.445 100.32 102.434 100.332 102.42 100.341L99.6521 101.955C96.0868 104.034 92.4 106.187 88.588 108.322C88.5742 108.329 88.5588 108.333 88.5432 108.333C88.5267 108.333 88.5104 108.329 88.4965 108.32C88.4823 108.312 88.4706 108.3 88.4624 108.286C88.4542 108.272 88.4498 108.256 88.4497 108.24V89.126H88.4012C88.1246 89.9984 85.7365 98.1607 84.5443 102.314C84.2653 103.281 83.9856 104.25 83.7053 105.219C83.0999 107.317 82.472 109.488 81.8703 111.625C81.8079 111.882 81.6897 112.122 81.524 112.328C81.3583 112.534 81.1493 112.701 80.9117 112.817C79.7494 113.458 78.5853 114.141 77.4585 114.801C76.9415 115.106 76.422 115.409 75.9 115.711C75.7849 115.773 75.6656 115.828 75.5431 115.875L75.3133 115.972C75.301 115.975 75.2882 115.975 75.2759 115.972C75.2642 115.975 75.2521 115.975 75.2404 115.972C75.229 115.968 75.2186 115.961 75.21 115.952C75.2013 115.944 75.1945 115.933 75.19 115.922C75.0517 115.597 74.863 115.15 74.6294 114.614C73.0579 110.878 69.8551 103.287 68.5078 100.759C68.4667 102.835 68.3844 114.138 68.39 119.458C68.39 119.765 68.3601 120.08 67.9864 120.293C64.3376 122.367 60.6857 124.45 57.0307 126.541L54.7883 127.817C54.7518 127.833 54.7123 127.841 54.6725 127.841L54.4594 127.86L54.4538 127.848Z" fill="#EBFF29"/>
<path d="M102.38 45.0399V100.266C97.8713 102.882 93.3399 105.564 88.5525 108.245V89.0457L88.3451 89.0158C88.2423 89.2885 85.6561 98.1308 84.4639 102.28C83.5782 105.385 82.6626 108.484 81.7881 111.595C81.7283 111.839 81.6155 112.068 81.4575 112.264C81.2996 112.46 81.1005 112.619 80.8743 112.729C79.1925 113.663 77.5313 114.657 75.8608 115.625C75.7076 115.713 75.5375 115.769 75.2834 115.881C74.1622 113.254 69.8513 102.887 68.4405 100.41C68.4068 100.597 68.3041 113.674 68.3115 119.453C68.3115 119.783 68.2686 120.028 67.9546 120.2C63.5459 122.708 59.1428 125.218 54.7453 127.729C54.6489 127.745 54.5515 127.755 54.4538 127.759V126.188C54.4538 108.843 54.4538 91.4974 54.4538 74.1504C54.4538 72.5661 54.4632 72.568 55.831 71.7796C60.4577 69.1099 70.7669 63.2045 71.4116 62.8608C72.6486 66.1189 73.7063 69.3715 74.8424 72.596C75.9785 75.8206 77.0847 79.0731 78.2507 82.4004C78.6506 82.1501 80.4352 74.8435 81.2705 71.4751C82.5542 66.2908 83.8492 61.1065 85.0993 55.9129C85.1783 55.5179 85.3456 55.1459 85.5886 54.8247C85.8316 54.5035 86.144 54.2413 86.5026 54.0577C87.9545 53.2563 101.825 45.3033 102.386 45.0399H102.38ZM102.386 44.853C102.357 44.8529 102.329 44.8593 102.304 44.8717C101.99 45.023 97.5611 47.5489 93.2801 49.9925C90.0773 51.8196 87.052 53.5421 86.4204 53.8933C86.0384 54.089 85.7056 54.3683 85.4467 54.7106C85.1879 55.0529 85.0097 55.4492 84.9255 55.8699C83.8977 60.1388 82.8214 64.4637 81.7825 68.6634L81.0911 71.4284L80.9229 72.1066C80.2763 74.7221 78.8506 80.4874 78.29 81.939C77.9661 81.0061 77.6453 80.0795 77.3276 79.1591C76.5391 76.8817 75.7954 74.7295 75.0218 72.5325C74.6387 71.4508 74.2612 70.3467 73.9006 69.2781C73.1718 67.1558 72.4188 64.9606 71.5966 62.7916C71.587 62.7667 71.5722 62.7442 71.5532 62.7255C71.5342 62.7068 71.5114 62.6924 71.4863 62.6833C71.4654 62.6757 71.4432 62.6719 71.4209 62.6721C71.3904 62.6716 71.3603 62.6787 71.3331 62.6926C70.6679 63.0476 60.2727 68.9997 55.7357 71.6152L55.717 71.6264C54.3043 72.441 54.2651 72.512 54.2651 74.1485C54.2651 87.1451 54.2651 100.142 54.2651 113.14V127.757C54.2651 127.806 54.2848 127.854 54.3198 127.889C54.3548 127.924 54.4024 127.944 54.4519 127.944H54.4706L54.6818 127.925C54.7321 127.925 54.7819 127.914 54.8275 127.893H54.8369L57.0026 126.658C60.6203 124.603 64.3631 122.462 68.0443 120.368C68.4629 120.133 68.4965 119.772 68.4965 119.453C68.4965 114.463 68.5657 103.928 68.6086 101.124C70.0363 103.926 73.0466 111.064 74.5565 114.644L75.1171 115.952C75.1267 115.974 75.1407 115.995 75.1583 116.012C75.176 116.03 75.1969 116.043 75.2198 116.053C75.2418 116.062 75.2653 116.066 75.289 116.066C75.3146 116.065 75.34 116.06 75.3637 116.051C75.4478 116.013 75.5226 115.983 75.5898 115.955C75.7181 115.906 75.8429 115.849 75.9636 115.784C76.4849 115.483 77.0025 115.178 77.522 114.876C78.6432 114.214 79.8129 113.532 80.9733 112.892C81.2209 112.768 81.4389 112.593 81.6124 112.377C81.7859 112.162 81.9108 111.912 81.9787 111.644C82.5766 109.51 83.2026 107.347 83.808 105.249C84.0908 104.277 84.3717 103.305 84.6508 102.332C85.729 98.5773 87.7901 91.5304 88.3731 89.5856V108.245C88.3731 108.295 88.3928 108.342 88.4278 108.377C88.4629 108.412 88.5104 108.432 88.5599 108.432C88.5921 108.432 88.6236 108.424 88.6515 108.408C92.4654 106.272 96.1522 104.111 99.7194 102.037L102.483 100.427C102.511 100.411 102.535 100.387 102.551 100.359C102.568 100.331 102.576 100.299 102.577 100.266V45.0399C102.577 45.0081 102.569 44.9769 102.553 44.9491C102.538 44.9213 102.516 44.8979 102.489 44.8811C102.459 44.8626 102.425 44.8529 102.39 44.853H102.386Z" fill="black"/>
<path d="M322.157 69.5644C308.75 69.6733 299.937 81.9207 300.043 100.292C299.937 81.9182 290.978 69.8064 277.574 69.9225C290.978 69.8136 299.932 57.5639 300.031 39.1953C299.932 57.5663 308.75 69.6733 322.157 69.5644Z" stroke="white" stroke-width="0.5" stroke-linecap="round" stroke-linejoin="round"/>
<path d="M198.413 120.362C190.918 120.423 185.99 127.262 186.05 137.519C185.99 127.26 180.981 120.497 173.487 120.562C180.981 120.501 185.987 113.662 186.043 103.405C185.987 113.663 190.918 120.423 198.413 120.362Z" stroke="white" stroke-width="0.5" stroke-linecap="round" stroke-linejoin="round"/>
<path d="M241.735 220.817C310.084 220.817 365.492 205.687 365.492 187.022C365.492 168.358 310.084 153.227 241.735 153.227C173.386 153.227 117.979 168.358 117.979 187.022C117.979 205.687 173.386 220.817 241.735 220.817Z" fill="#232323" stroke="white" stroke-width="0.1" stroke-miterlimit="10"/>
<path d="M143.909 83.7821C143.909 88.9075 140.651 92.0437 135.329 92.0437H127.624V75.5184H135.329C140.651 75.5184 143.909 78.6547 143.909 83.7821ZM140.045 83.7821C140.045 80.5745 138.198 78.7755 134.94 78.7755H131.417V88.7866H134.94C138.194 88.7866 140.045 86.9897 140.045 83.7821Z" fill="white" stroke="black" stroke-width="0.1" stroke-miterlimit="10"/>
<path d="M157.739 88.5449H150.282L148.8 92.0437H144.837L152.151 75.5184H156.041L163.361 92.0437H159.221L157.739 88.5449ZM151.616 85.3849H156.403L154.026 79.3838L151.616 85.3849Z" fill="white" stroke="black" stroke-width="0.1" stroke-miterlimit="10"/>
<path d="M164.255 83.7821C164.255 78.6547 167.901 75.2272 173.345 75.2272C178.788 75.2272 182.434 78.6547 182.434 83.7821C182.434 88.9094 178.788 92.335 173.345 92.335C167.901 92.335 164.255 88.9075 164.255 83.7821ZM178.57 83.7821C178.57 80.6953 176.456 78.5814 173.345 78.5814C170.233 78.5814 168.117 80.6953 168.117 83.7821C168.117 86.8688 170.231 88.9808 173.343 88.9808C176.454 88.9808 178.57 86.8628 178.57 83.7821Z" fill="white" stroke="black" stroke-width="0.1" stroke-miterlimit="10"/>
<path d="M138.739 54.997H136.956V47.0246L133.339 54.997H132.021L128.413 47.0246V54.997H126.701V44.9384H129.245L132.721 52.6156L136.199 44.9384H138.743L138.739 54.997Z" fill="white"/>
<path d="M143.222 46.4778V49.1544H149.39V50.6919H143.222V53.4656H150.356V55.003H141.438V44.9384H150.356V46.4778H143.222Z" fill="white"/>
<path d="M161.243 46.4778H157.351V54.997H155.567V46.4778H151.669V44.9384H161.243V46.4778Z" fill="white"/>
<path d="M168.492 52.5879H163.432L162.352 54.999H160.472L165.089 44.9404H166.908L171.526 54.999H169.572L168.492 52.5879ZM164.098 51.0802H167.826L165.961 46.7888L164.098 51.0802Z" fill="white"/>
<path d="M181.719 44.9384L177.31 54.997H175.475L171.066 44.9384H173.02L176.44 52.9564L179.858 44.9384H181.719Z" fill="white"/>
<path d="M185.357 46.4778V49.1544H191.528V50.6919H185.357V53.4656H192.491V55.003H183.574V44.9384H192.491V46.4778H185.357Z" fill="white"/>
<path d="M202.372 54.997L199.625 51.0623H196.369V54.997H194.586V44.9384H200.592C202.812 44.9384 204.025 46.0182 204.025 48.0014C204.025 49.628 203.196 50.6483 201.672 50.9593L204.512 54.997H202.372ZM196.365 49.5249H200.329C201.587 49.5249 202.193 49.0217 202.193 48.0014C202.193 46.981 201.587 46.4778 200.329 46.4778H196.365V49.5249Z" fill="white"/>
<path d="M205.731 53.7251L206.5 52.3045C207.725 53.165 209.189 53.6202 210.687 53.6062C212.552 53.6062 213.542 53.103 213.542 52.1124C213.542 51.2842 212.817 50.9593 210.584 50.7968C207.358 50.5452 206.175 49.7607 206.175 47.8527C206.175 45.9151 207.817 44.7601 210.598 44.7601C212.256 44.7601 213.661 45.1741 214.801 45.9746L214.089 47.3614C213.058 46.6572 211.832 46.2954 210.584 46.3272C208.971 46.3272 207.994 46.8602 207.994 47.7775C207.994 48.6056 208.705 48.9305 210.938 49.093C214.178 49.3446 215.362 50.1292 215.362 52.0371C215.362 54.0777 213.721 55.1733 210.703 55.1733C208.741 55.1753 207.047 54.6721 205.731 53.7251Z" fill="white"/>
<path d="M219.21 46.4778V49.1544H225.387V50.6919H219.218V53.4656H226.352V55.003H217.434V44.9384H226.352V46.4778H219.21Z" fill="white"/>
<path d="M134.586 68.4851H129.524L128.444 70.8963H126.566L131.181 60.8376H133.002L137.618 70.8963H135.666L134.586 68.4851ZM130.19 66.9774H133.92L132.051 62.6921L130.19 66.9774Z" fill="white"/>
<path d="M149.246 65.862C149.246 68.9527 147.248 70.8903 144.054 70.8903H139.466V60.8376H144.054C147.248 60.8376 149.246 62.7753 149.246 65.862ZM147.427 65.862C147.427 63.6827 146.095 62.3711 143.86 62.3711H141.258V69.3529H143.862C146.095 69.3588 147.427 68.0572 147.427 65.862Z" fill="white"/>
<path d="M160.624 60.8376L156.215 70.8963H154.38L149.971 60.8376H151.925L155.343 68.8556L158.76 60.8376H160.624Z" fill="white"/>
<path d="M164.265 62.377V65.0537H170.434V66.5931H164.265V69.3668H171.399V70.9042H162.481V60.8376H171.399V62.377H164.265Z" fill="white"/>
<path d="M181.279 70.8963L178.527 66.9616H175.271V70.8963H173.487V60.8376H179.494C181.713 60.8376 182.926 61.9174 182.926 63.9006C182.926 65.5272 182.098 66.5475 180.574 66.8586L183.415 70.8963H181.279ZM175.271 65.4242H179.234C180.492 65.4242 181.099 64.9209 181.099 63.9006C181.099 62.8803 180.492 62.377 179.234 62.377H175.271V65.4242Z" fill="white"/>
<path d="M194.15 62.377H190.258V70.8963H188.474V62.377H184.577V60.8376H194.15V62.377Z" fill="white"/>
<path d="M196.072 60.8376H197.856V70.8963H196.072V60.8376Z" fill="white"/>
<path d="M199.845 69.6263L200.616 68.2078C201.841 69.0674 203.305 69.5225 204.801 69.5094C206.666 69.5094 207.657 69.0062 207.657 68.0156C207.657 67.1855 206.934 66.8606 204.698 66.6981C201.474 66.4465 200.289 65.6619 200.289 63.754C200.289 61.8164 201.932 60.6633 204.714 60.6633C206.371 60.6633 207.776 61.0774 208.915 61.8758L208.206 63.2627C207.175 62.5574 205.947 62.1948 204.698 62.2265C203.085 62.2265 202.11 62.7595 202.11 63.6768C202.11 64.5049 202.82 64.8298 205.053 64.9923C208.293 65.2439 209.478 66.0285 209.478 67.9364C209.478 69.979 207.835 71.0726 204.817 71.0726C202.863 71.0746 201.163 70.5714 199.845 69.6263Z" fill="white"/>
<path d="M213.324 62.377V65.0537H219.493V66.5931H213.324V69.3668H220.458V70.9042H211.541V60.8376H220.458V62.377H213.324Z" fill="white"/>
<path d="M234.586 70.8963H232.802V62.9239L229.191 70.8963H227.876L224.265 62.9239V70.8963H222.549V60.8376H225.093L228.557 68.5149L232.033 60.8376H234.58L234.586 70.8963Z" fill="white"/>
<path d="M239.06 62.377V65.0537H245.229V66.5931H239.06V69.3668H246.194V70.9042H237.277V60.8376H246.194V62.377H239.06Z" fill="white"/>
<path d="M257.858 60.8376V70.8963H256.185L250.001 62.8506V70.8963H248.285V60.8376H250.534L256.142 68.1305V60.8376H257.858Z" fill="white"/>
<path d="M269.338 62.377H265.448V70.8963H263.664V62.377H259.774V60.8376H269.346L269.338 62.377Z" fill="white"/>
<path d="M157.406 176.569V176.053H150.47V184.213H151.058V180.349H156.626V179.833H151.058V176.569H157.406Z" fill="white"/>
<path d="M161.555 178.105C160.487 178.105 159.647 178.345 158.915 178.837L159.167 179.281C159.803 178.825 160.595 178.597 161.531 178.597C163.163 178.597 163.871 179.269 163.871 180.793V181.489C163.019 180.985 161.975 180.697 160.943 180.697C159.371 180.697 158.471 181.357 158.471 182.509C158.471 183.661 159.347 184.357 160.787 184.357C161.975 184.357 163.055 183.877 163.871 182.953V184.213H164.423V180.733C164.423 178.933 163.523 178.105 161.555 178.105ZM163.871 182.413C163.163 183.325 162.035 183.865 160.847 183.865C159.707 183.865 159.035 183.361 159.035 182.509C159.035 181.633 159.731 181.177 161.039 181.177C162.047 181.177 163.043 181.453 163.871 181.969V182.413Z" fill="white"/>
<path d="M169.486 184.357C170.386 184.357 171.154 184.117 171.862 183.613L171.622 183.157C170.974 183.637 170.326 183.853 169.522 183.853C167.806 183.853 166.666 182.821 166.666 181.225C166.666 179.653 167.782 178.597 169.45 178.597C170.182 178.597 170.83 178.801 171.406 179.197L171.634 178.753C171.01 178.321 170.266 178.105 169.426 178.105C167.434 178.105 166.102 179.353 166.102 181.237C166.102 183.121 167.434 184.357 169.486 184.357Z" fill="white"/>
<path d="M173.7 176.905C173.988 176.905 174.18 176.713 174.18 176.449C174.18 176.185 173.988 175.993 173.7 175.993C173.412 175.993 173.22 176.185 173.22 176.449C173.22 176.713 173.412 176.905 173.7 176.905ZM173.424 184.213H173.976V178.249H173.424V184.213Z" fill="white"/>
<path d="M176.154 184.213H176.706V175.693H176.154V184.213Z" fill="white"/>
<path d="M179.161 176.905C179.449 176.905 179.641 176.713 179.641 176.449C179.641 176.185 179.449 175.993 179.161 175.993C178.873 175.993 178.681 176.185 178.681 176.449C178.681 176.713 178.873 176.905 179.161 176.905ZM178.885 184.213H179.437V178.249H178.885V184.213Z" fill="white"/>
<path d="M185.851 183.517C185.455 183.745 185.023 183.853 184.555 183.853C183.679 183.853 183.259 183.457 183.259 182.593V178.717H185.863V178.249H183.259V176.053H182.707V178.249H180.883V178.717H182.707V182.653C182.707 183.781 183.319 184.357 184.531 184.357C185.095 184.357 185.587 184.225 186.031 183.973L185.851 183.517Z" fill="white"/>
<path d="M190.196 178.105C189.128 178.105 188.288 178.345 187.556 178.837L187.808 179.281C188.444 178.825 189.236 178.597 190.172 178.597C191.804 178.597 192.512 179.269 192.512 180.793V181.489C191.66 180.985 190.616 180.697 189.584 180.697C188.012 180.697 187.112 181.357 187.112 182.509C187.112 183.661 187.988 184.357 189.428 184.357C190.616 184.357 191.696 183.877 192.512 182.953V184.213H193.064V180.733C193.064 178.933 192.164 178.105 190.196 178.105ZM192.512 182.413C191.804 183.325 190.676 183.865 189.488 183.865C188.348 183.865 187.676 183.361 187.676 182.509C187.676 181.633 188.372 181.177 189.68 181.177C190.688 181.177 191.684 181.453 192.512 181.969V182.413Z" fill="white"/>
<path d="M199.339 183.517C198.943 183.745 198.511 183.853 198.043 183.853C197.167 183.853 196.747 183.457 196.747 182.593V178.717H199.351V178.249H196.747V176.053H196.195V178.249H194.371V178.717H196.195V182.653C196.195 183.781 196.807 184.357 198.019 184.357C198.583 184.357 199.075 184.225 199.519 183.973L199.339 183.517Z" fill="white"/>
<path d="M207.236 181.369V181.237C207.236 179.377 205.904 178.105 203.972 178.105C202.028 178.105 200.684 179.377 200.684 181.225C200.684 183.133 202.076 184.357 204.224 184.357C205.292 184.357 206.18 184.069 206.9 183.481L206.66 183.037C206 183.589 205.208 183.853 204.248 183.853C202.472 183.853 201.332 182.905 201.26 181.369H207.236ZM203.972 178.597C205.472 178.597 206.54 179.533 206.684 180.901H201.272C201.416 179.533 202.484 178.597 203.972 178.597Z" fill="white"/>
<path d="M220.461 184.213L217.725 180.613C219.225 180.553 220.065 179.737 220.065 178.333C220.065 176.869 219.153 176.053 217.533 176.053H212.661V184.213H213.249V180.613H217.005L219.741 184.213H220.461ZM213.249 176.569H217.389C218.781 176.569 219.465 177.157 219.465 178.333C219.465 179.509 218.781 180.097 217.389 180.097H213.249V176.569Z" fill="white"/>
<path d="M228.248 181.369V181.237C228.248 179.377 226.916 178.105 224.984 178.105C223.04 178.105 221.696 179.377 221.696 181.225C221.696 183.133 223.088 184.357 225.236 184.357C226.304 184.357 227.192 184.069 227.912 183.481L227.672 183.037C227.012 183.589 226.22 183.853 225.26 183.853C223.484 183.853 222.344 182.905 222.272 181.369H228.248ZM224.984 178.597C226.484 178.597 227.552 179.533 227.696 180.901H222.284C222.428 179.533 223.496 178.597 224.984 178.597Z" fill="white"/>
<path d="M234.905 178.249L232.265 183.589L229.625 178.249H229.013L231.977 184.213H232.541L235.505 178.249H234.905Z" fill="white"/>
<path d="M242.814 181.369V181.237C242.814 179.377 241.482 178.105 239.55 178.105C237.606 178.105 236.262 179.377 236.262 181.225C236.262 183.133 237.654 184.357 239.802 184.357C240.87 184.357 241.758 184.069 242.478 183.481L242.238 183.037C241.578 183.589 240.786 183.853 239.826 183.853C238.05 183.853 236.91 182.905 236.838 181.369H242.814ZM239.55 178.597C241.05 178.597 242.118 179.533 242.262 180.901H236.85C236.994 179.533 238.062 178.597 239.55 178.597Z" fill="white"/>
<path d="M247.906 178.105C246.814 178.105 245.866 178.573 245.062 179.509V178.249H244.51V184.213H245.062V180.037C245.83 179.113 246.742 178.597 247.798 178.597C249.022 178.597 249.682 179.293 249.682 180.517V184.213H250.234V180.445C250.234 178.957 249.382 178.105 247.906 178.105Z" fill="white"/>
<path d="M257.378 178.249V182.425C256.61 183.349 255.698 183.853 254.642 183.853C253.418 183.853 252.758 183.169 252.758 181.945V178.249H252.206V182.017C252.206 183.505 253.058 184.357 254.534 184.357C255.638 184.357 256.574 183.889 257.378 182.953V184.213H257.93V178.249H257.378Z" fill="white"/>
<path d="M266.275 181.369V181.237C266.275 179.377 264.943 178.105 263.011 178.105C261.067 178.105 259.723 179.377 259.723 181.225C259.723 183.133 261.115 184.357 263.263 184.357C264.331 184.357 265.219 184.069 265.939 183.481L265.699 183.037C265.039 183.589 264.247 183.853 263.287 183.853C261.511 183.853 260.371 182.905 260.299 181.369H266.275ZM263.011 178.597C264.511 178.597 265.579 179.533 265.723 180.901H260.311C260.455 179.533 261.523 178.597 263.011 178.597Z" fill="white"/>
<path d="M267.533 181.201H270.293V180.649H267.533V181.201Z" fill="white"/>
<path d="M279.894 180.001H276.138V180.517H279.318V182.941C278.442 183.553 277.566 183.817 276.522 183.817C274.05 183.817 272.454 182.353 272.454 180.121C272.454 177.913 274.002 176.449 276.426 176.449C277.422 176.449 278.286 176.701 279.126 177.277L279.39 176.797C278.55 176.209 277.542 175.909 276.402 175.909C273.666 175.909 271.854 177.601 271.854 180.133C271.854 182.677 273.678 184.357 276.462 184.357C277.806 184.357 278.934 183.985 279.894 183.217V180.001Z" fill="white"/>
<path d="M288.095 181.369V181.237C288.095 179.377 286.763 178.105 284.831 178.105C282.887 178.105 281.543 179.377 281.543 181.225C281.543 183.133 282.935 184.357 285.083 184.357C286.151 184.357 287.039 184.069 287.759 183.481L287.519 183.037C286.859 183.589 286.067 183.853 285.107 183.853C283.331 183.853 282.191 182.905 282.119 181.369H288.095ZM284.831 178.597C286.331 178.597 287.399 179.533 287.543 180.901H282.131C282.275 179.533 283.343 178.597 284.831 178.597Z" fill="white"/>
<path d="M293.187 178.105C292.095 178.105 291.147 178.573 290.343 179.509V178.249H289.791V184.213H290.343V180.037C291.111 179.113 292.023 178.597 293.079 178.597C294.303 178.597 294.963 179.293 294.963 180.517V184.213H295.515V180.445C295.515 178.957 294.663 178.105 293.187 178.105Z" fill="white"/>
<path d="M303.752 181.369V181.237C303.752 179.377 302.42 178.105 300.488 178.105C298.544 178.105 297.2 179.377 297.2 181.225C297.2 183.133 298.592 184.357 300.74 184.357C301.808 184.357 302.696 184.069 303.416 183.481L303.176 183.037C302.516 183.589 301.724 183.853 300.764 183.853C298.988 183.853 297.848 182.905 297.776 181.369H303.752ZM300.488 178.597C301.988 178.597 303.056 179.533 303.2 180.901H297.788C297.932 179.533 299 178.597 300.488 178.597Z" fill="white"/>
<path d="M308.867 178.105C307.691 178.105 306.755 178.621 305.999 179.605V178.249H305.447V184.213H305.999V180.121C306.791 179.137 307.703 178.657 308.795 178.657C308.963 178.657 309.179 178.669 309.323 178.693L309.347 178.141C309.227 178.117 309.047 178.105 308.867 178.105Z" fill="white"/>
<path d="M313.442 178.105C312.374 178.105 311.534 178.345 310.802 178.837L311.054 179.281C311.69 178.825 312.482 178.597 313.418 178.597C315.05 178.597 315.758 179.269 315.758 180.793V181.489C314.906 180.985 313.862 180.697 312.83 180.697C311.258 180.697 310.358 181.357 310.358 182.509C310.358 183.661 311.234 184.357 312.674 184.357C313.862 184.357 314.942 183.877 315.758 182.953V184.213H316.31V180.733C316.31 178.933 315.41 178.105 313.442 178.105ZM315.758 182.413C315.05 183.325 313.922 183.865 312.734 183.865C311.594 183.865 310.922 183.361 310.922 182.509C310.922 181.633 311.618 181.177 312.926 181.177C313.934 181.177 314.93 181.453 315.758 181.969V182.413Z" fill="white"/>
<path d="M322.586 183.517C322.19 183.745 321.758 183.853 321.29 183.853C320.414 183.853 319.994 183.457 319.994 182.593V178.717H322.598V178.249H319.994V176.053H319.442V178.249H317.618V178.717H319.442V182.653C319.442 183.781 320.054 184.357 321.266 184.357C321.83 184.357 322.322 184.225 322.766 183.973L322.586 183.517Z" fill="white"/>
<path d="M324.602 176.905C324.89 176.905 325.082 176.713 325.082 176.449C325.082 176.185 324.89 175.993 324.602 175.993C324.314 175.993 324.122 176.185 324.122 176.449C324.122 176.713 324.314 176.905 324.602 176.905ZM324.326 184.213H324.878V178.249H324.326V184.213Z" fill="white"/>
<path d="M330.453 178.105C329.361 178.105 328.413 178.573 327.609 179.509V178.249H327.057V184.213H327.609V180.037C328.377 179.113 329.289 178.597 330.345 178.597C331.569 178.597 332.229 179.293 332.229 180.517V184.213H332.781V180.445C332.781 178.957 331.929 178.105 330.453 178.105Z" fill="white"/>
<path d="M340.153 178.249V179.509C339.433 178.561 338.557 178.105 337.513 178.105C335.737 178.105 334.489 179.389 334.489 181.225C334.489 183.073 335.737 184.357 337.513 184.357C338.557 184.357 339.433 183.901 340.153 182.953V183.685C340.153 185.329 339.265 186.133 337.477 186.133C336.625 186.133 335.929 185.941 335.233 185.509L335.017 185.977C335.749 186.433 336.529 186.637 337.501 186.637C339.601 186.637 340.705 185.653 340.705 183.757V178.249H340.153ZM340.153 182.389C339.445 183.373 338.581 183.853 337.573 183.853C336.073 183.853 335.053 182.797 335.053 181.225C335.053 179.665 336.073 178.597 337.573 178.597C338.581 178.597 339.445 179.089 340.153 180.061V182.389Z" fill="white"/>
<path d="M156.398 195.025C157.31 194.737 157.802 194.089 157.802 193.117C157.802 191.785 156.878 191.053 155.198 191.053H150.47V199.213H155.354C157.106 199.213 158.066 198.445 158.066 197.065C158.066 195.985 157.478 195.277 156.398 195.025ZM151.058 191.569H155.126C156.53 191.569 157.226 192.097 157.226 193.153C157.226 194.221 156.506 194.809 155.246 194.809H151.058V191.569ZM155.27 198.697H151.058V195.325H155.354C156.758 195.325 157.478 195.901 157.478 197.041C157.478 198.121 156.71 198.697 155.27 198.697Z" fill="white"/>
<path d="M165.023 193.249V197.425C164.255 198.349 163.343 198.853 162.287 198.853C161.063 198.853 160.403 198.169 160.403 196.945V193.249H159.851V197.017C159.851 198.505 160.703 199.357 162.179 199.357C163.283 199.357 164.219 198.889 165.023 197.953V199.213H165.575V193.249H165.023Z" fill="white"/>
<path d="M170.32 199.357C172.132 199.357 173.188 198.709 173.188 197.569C173.188 196.501 172.456 196.069 170.44 195.949C168.616 195.829 168.064 195.577 168.064 194.821C168.064 194.077 168.88 193.597 170.164 193.597C171.112 193.597 171.952 193.837 172.552 194.281L172.792 193.837C172.108 193.345 171.208 193.105 170.2 193.105C168.556 193.105 167.5 193.777 167.5 194.857C167.5 195.913 168.232 196.345 170.248 196.465C172.084 196.585 172.624 196.849 172.624 197.593C172.624 198.385 171.76 198.865 170.332 198.865C169.168 198.865 168.22 198.541 167.5 198.013L167.224 198.445C167.98 199.021 169.048 199.357 170.32 199.357Z" fill="white"/>
<path d="M175.141 191.905C175.429 191.905 175.621 191.713 175.621 191.449C175.621 191.185 175.429 190.993 175.141 190.993C174.853 190.993 174.661 191.185 174.661 191.449C174.661 191.713 174.853 191.905 175.141 191.905ZM174.865 199.213H175.417V193.249H174.865V199.213Z" fill="white"/>
<path d="M180.992 193.105C179.9 193.105 178.952 193.573 178.148 194.509V193.249H177.596V199.213H178.148V195.037C178.916 194.113 179.828 193.597 180.884 193.597C182.108 193.597 182.768 194.293 182.768 195.517V199.213H183.32V195.445C183.32 193.957 182.468 193.105 180.992 193.105Z" fill="white"/>
<path d="M191.556 196.369V196.237C191.556 194.377 190.224 193.105 188.292 193.105C186.348 193.105 185.004 194.377 185.004 196.225C185.004 198.133 186.396 199.357 188.544 199.357C189.612 199.357 190.5 199.069 191.22 198.481L190.98 198.037C190.32 198.589 189.528 198.853 188.568 198.853C186.792 198.853 185.652 197.905 185.58 196.369H191.556ZM188.292 193.597C189.792 193.597 190.86 194.533 191.004 195.901H185.592C185.736 194.533 186.804 193.597 188.292 193.597Z" fill="white"/>
<path d="M195.808 199.357C197.62 199.357 198.676 198.709 198.676 197.569C198.676 196.501 197.944 196.069 195.928 195.949C194.104 195.829 193.552 195.577 193.552 194.821C193.552 194.077 194.368 193.597 195.652 193.597C196.6 193.597 197.44 193.837 198.04 194.281L198.28 193.837C197.596 193.345 196.696 193.105 195.688 193.105C194.044 193.105 192.988 193.777 192.988 194.857C192.988 195.913 193.72 196.345 195.736 196.465C197.572 196.585 198.112 196.849 198.112 197.593C198.112 198.385 197.248 198.865 195.82 198.865C194.656 198.865 193.708 198.541 192.988 198.013L192.712 198.445C193.468 199.021 194.536 199.357 195.808 199.357Z" fill="white"/>
<path d="M202.909 199.357C204.721 199.357 205.777 198.709 205.777 197.569C205.777 196.501 205.045 196.069 203.029 195.949C201.205 195.829 200.653 195.577 200.653 194.821C200.653 194.077 201.469 193.597 202.753 193.597C203.701 193.597 204.541 193.837 205.141 194.281L205.381 193.837C204.697 193.345 203.797 193.105 202.789 193.105C201.145 193.105 200.089 193.777 200.089 194.857C200.089 195.913 200.821 196.345 202.837 196.465C204.673 196.585 205.213 196.849 205.213 197.593C205.213 198.385 204.349 198.865 202.921 198.865C201.757 198.865 200.809 198.541 200.089 198.013L199.813 198.445C200.569 199.021 201.637 199.357 202.909 199.357Z" fill="white"/>
<path d="M213.611 196.369V196.237C213.611 194.377 212.279 193.105 210.347 193.105C208.403 193.105 207.059 194.377 207.059 196.225C207.059 198.133 208.451 199.357 210.599 199.357C211.667 199.357 212.555 199.069 213.275 198.481L213.035 198.037C212.375 198.589 211.583 198.853 210.623 198.853C208.847 198.853 207.707 197.905 207.635 196.369H213.611ZM210.347 193.597C211.847 193.597 212.915 194.533 213.059 195.901H207.647C207.791 194.533 208.859 193.597 210.347 193.597Z" fill="white"/>
<path d="M217.863 199.357C219.675 199.357 220.731 198.709 220.731 197.569C220.731 196.501 219.999 196.069 217.983 195.949C216.159 195.829 215.607 195.577 215.607 194.821C215.607 194.077 216.423 193.597 217.707 193.597C218.655 193.597 219.495 193.837 220.095 194.281L220.335 193.837C219.651 193.345 218.751 193.105 217.743 193.105C216.099 193.105 215.043 193.777 215.043 194.857C215.043 195.913 215.775 196.345 217.791 196.465C219.627 196.585 220.167 196.849 220.167 197.593C220.167 198.385 219.303 198.865 217.875 198.865C216.711 198.865 215.763 198.541 215.043 198.013L214.767 198.445C215.523 199.021 216.591 199.357 217.863 199.357Z" fill="white"/>
<path d="M226.282 191.905C226.57 191.905 226.762 191.713 226.762 191.449C226.762 191.185 226.57 190.993 226.282 190.993C225.994 190.993 225.802 191.185 225.802 191.449C225.802 191.713 225.994 191.905 226.282 191.905ZM226.006 199.213H226.558V193.249H226.006V199.213Z" fill="white"/>
<path d="M232.132 193.105C231.04 193.105 230.092 193.573 229.288 194.509V193.249H228.736V199.213H229.288V195.037C230.056 194.113 230.968 193.597 232.024 193.597C233.248 193.597 233.908 194.293 233.908 195.517V199.213H234.46V195.445C234.46 193.957 233.608 193.105 232.132 193.105Z" fill="white"/>
<path d="M244.375 198.517C243.979 198.745 243.547 198.853 243.079 198.853C242.203 198.853 241.783 198.457 241.783 197.593V193.717H244.387V193.249H241.783V191.053H241.231V193.249H239.407V193.717H241.231V197.653C241.231 198.781 241.843 199.357 243.055 199.357C243.619 199.357 244.111 199.225 244.555 198.973L244.375 198.517Z" fill="white"/>
<path d="M249.511 193.105C248.419 193.105 247.471 193.573 246.667 194.509V190.693H246.115V199.213H246.667V195.037C247.435 194.113 248.347 193.597 249.403 193.597C250.627 193.597 251.287 194.293 251.287 195.517V199.213H251.839V195.445C251.839 193.957 250.987 193.105 249.511 193.105Z" fill="white"/>
<path d="M260.076 196.369V196.237C260.076 194.377 258.744 193.105 256.812 193.105C254.868 193.105 253.524 194.377 253.524 196.225C253.524 198.133 254.916 199.357 257.064 199.357C258.132 199.357 259.02 199.069 259.74 198.481L259.5 198.037C258.84 198.589 258.048 198.853 257.088 198.853C255.312 198.853 254.172 197.905 254.1 196.369H260.076ZM256.812 193.597C258.312 193.597 259.38 194.533 259.524 195.901H254.112C254.256 194.533 255.324 193.597 256.812 193.597Z" fill="white"/>
<path d="M274.597 191.053H273.709L270.049 198.457L266.389 191.053H265.501V199.213H266.065V191.653L269.797 199.213H270.289L274.021 191.653V199.213H274.597V191.053Z" fill="white"/>
<path d="M283.08 196.369V196.237C283.08 194.377 281.748 193.105 279.816 193.105C277.872 193.105 276.528 194.377 276.528 196.225C276.528 198.133 277.92 199.357 280.068 199.357C281.136 199.357 282.024 199.069 282.744 198.481L282.504 198.037C281.844 198.589 281.052 198.853 280.092 198.853C278.316 198.853 277.176 197.905 277.104 196.369H283.08ZM279.816 193.597C281.316 193.597 282.384 194.533 282.528 195.901H277.116C277.26 194.533 278.328 193.597 279.816 193.597Z" fill="white"/>
<path d="M289 198.517C288.604 198.745 288.172 198.853 287.704 198.853C286.828 198.853 286.408 198.457 286.408 197.593V193.717H289.012V193.249H286.408V191.053H285.856V193.249H284.032V193.717H285.856V197.653C285.856 198.781 286.468 199.357 287.68 199.357C288.244 199.357 288.736 199.225 289.18 198.973L289 198.517Z" fill="white"/>
<path d="M293.344 193.105C292.276 193.105 291.436 193.345 290.704 193.837L290.956 194.281C291.592 193.825 292.384 193.597 293.32 193.597C294.952 193.597 295.66 194.269 295.66 195.793V196.489C294.808 195.985 293.764 195.697 292.732 195.697C291.16 195.697 290.26 196.357 290.26 197.509C290.26 198.661 291.136 199.357 292.576 199.357C293.764 199.357 294.844 198.877 295.66 197.953V199.213H296.212V195.733C296.212 193.933 295.312 193.105 293.344 193.105ZM295.66 197.413C294.952 198.325 293.824 198.865 292.636 198.865C291.496 198.865 290.824 198.361 290.824 197.509C290.824 196.633 291.52 196.177 292.828 196.177C293.836 196.177 294.832 196.453 295.66 196.969V197.413Z" fill="white"/>
<path d="M303.448 193.249L300.808 198.589L298.168 193.249H297.556L300.52 199.213H301.084L304.048 193.249H303.448Z" fill="white"/>
<path d="M311.357 196.369V196.237C311.357 194.377 310.025 193.105 308.093 193.105C306.149 193.105 304.805 194.377 304.805 196.225C304.805 198.133 306.197 199.357 308.345 199.357C309.413 199.357 310.301 199.069 311.021 198.481L310.781 198.037C310.121 198.589 309.329 198.853 308.369 198.853C306.593 198.853 305.453 197.905 305.381 196.369H311.357ZM308.093 193.597C309.593 193.597 310.661 194.533 310.805 195.901H305.393C305.537 194.533 306.605 193.597 308.093 193.597Z" fill="white"/>
<path d="M316.473 193.105C315.297 193.105 314.361 193.621 313.605 194.605V193.249H313.053V199.213H313.605V195.121C314.397 194.137 315.309 193.657 316.401 193.657C316.569 193.657 316.785 193.669 316.929 193.693L316.953 193.141C316.833 193.117 316.653 193.105 316.473 193.105Z" fill="white"/>
<path d="M320.952 199.357C322.764 199.357 323.82 198.709 323.82 197.569C323.82 196.501 323.088 196.069 321.072 195.949C319.248 195.829 318.696 195.577 318.696 194.821C318.696 194.077 319.512 193.597 320.796 193.597C321.744 193.597 322.584 193.837 323.184 194.281L323.424 193.837C322.74 193.345 321.84 193.105 320.832 193.105C319.188 193.105 318.132 193.777 318.132 194.857C318.132 195.913 318.864 196.345 320.88 196.465C322.716 196.585 323.256 196.849 323.256 197.593C323.256 198.385 322.392 198.865 320.964 198.865C319.8 198.865 318.852 198.541 318.132 198.013L317.856 198.445C318.612 199.021 319.68 199.357 320.952 199.357Z" fill="white"/>
<path d="M331.654 196.369V196.237C331.654 194.377 330.322 193.105 328.39 193.105C326.446 193.105 325.102 194.377 325.102 196.225C325.102 198.133 326.494 199.357 328.642 199.357C329.71 199.357 330.598 199.069 331.318 198.481L331.078 198.037C330.418 198.589 329.626 198.853 328.666 198.853C326.89 198.853 325.75 197.905 325.678 196.369H331.654ZM328.39 193.597C329.89 193.597 330.958 194.533 331.102 195.901H325.69C325.834 194.533 326.902 193.597 328.39 193.597Z" fill="white"/>
<path d="M333.607 199.357C333.895 199.357 334.099 199.165 334.099 198.877C334.099 198.589 333.895 198.397 333.607 198.397C333.319 198.397 333.115 198.589 333.115 198.877C333.115 199.165 333.319 199.357 333.607 199.357Z" fill="white"/>
</svg>
