<svg width="1440" height="900" viewBox="0 0 1440 900" fill="none" xmlns="http://www.w3.org/2000/svg">
<path d="M501.305 832.927C462.474 768.14 454.74 768.25 418.102 834.083C454.75 768.237 450.794 761.616 375.291 762.665C450.777 761.604 454.526 754.859 415.695 690.073C454.526 754.859 462.259 754.75 498.897 688.917C462.25 754.763 466.205 761.383 541.705 760.339C466.227 761.399 462.495 768.156 501.305 832.927Z" stroke="white" stroke-linecap="round" stroke-linejoin="round"/>
<path d="M1263 843.832H3V56H1263V843.832ZM3.85662 842.975H1262.14V56.8566H3.85662V842.975Z" fill="white" fill-opacity="0.5"/>
<path d="M1262.57 771.362H3.42814V772.219H1262.57V771.362Z" fill="white" fill-opacity="0.5"/>
<path d="M1262.57 699.834H3.42814V700.691H1262.57V699.834Z" fill="white" fill-opacity="0.5"/>
<path d="M1262.57 628.307H3.42814V629.163H1262.57V628.307Z" fill="white" fill-opacity="0.5"/>
<path d="M1262.57 556.779H3.42814V557.636H1262.57V556.779Z" fill="white" fill-opacity="0.5"/>
<path d="M1262.57 485.252H3.42814V486.108H1262.57V485.252Z" fill="white" fill-opacity="0.5"/>
<path d="M1262.57 413.724H3.42814V414.581H1262.57V413.724Z" fill="white" fill-opacity="0.5"/>
<path d="M1262.57 342.196H3.42814V343.053H1262.57V342.196Z" fill="white" fill-opacity="0.5"/>
<path d="M1262.57 270.583H3.42814V271.44H1262.57V270.583Z" fill="white" fill-opacity="0.5"/>
<path d="M1262.57 199.055H3.42814V199.912H1262.57V199.055Z" fill="white" fill-opacity="0.5"/>
<path d="M1262.57 127.528H3.42814V128.384H1262.57V127.528Z" fill="white" fill-opacity="0.5"/>
<path d="M1184.28 56.4283H1183.42V843.404H1184.28V56.4283Z" fill="white" fill-opacity="0.5"/>
<path d="M1105.64 56.4283H1104.78V843.404H1105.64V56.4283Z" fill="white" fill-opacity="0.5"/>
<path d="M1026.92 56.4283H1026.06V843.404H1026.92V56.4283Z" fill="white" fill-opacity="0.5"/>
<path d="M948.193 56.4283H947.336V843.404H948.193V56.4283Z" fill="white" fill-opacity="0.5"/>
<path d="M869.555 56.4283H868.699V843.404H869.555V56.4283Z" fill="white" fill-opacity="0.5"/>
<path d="M790.832 56.4283H789.975V843.404H790.832V56.4283Z" fill="white" fill-opacity="0.5"/>
<path d="M712.109 56.4283H711.252V843.404H712.109V56.4283Z" fill="white" fill-opacity="0.5"/>
<path d="M633.471 56.4283H632.615V843.404H633.471V56.4283Z" fill="white" fill-opacity="0.5"/>
<path d="M554.748 56.4283H553.891V843.404H554.748V56.4283Z" fill="white" fill-opacity="0.5"/>
<path d="M476.025 56.4283H475.168V843.404H476.025V56.4283Z" fill="white" fill-opacity="0.5"/>
<path d="M397.301 56.4283H396.445V843.404H397.301V56.4283Z" fill="white" fill-opacity="0.5"/>
<path d="M318.664 56.4283H317.807V843.404H318.664V56.4283Z" fill="white" fill-opacity="0.5"/>
<path d="M239.941 56.4283H239.084V843.404H239.941V56.4283Z" fill="white" fill-opacity="0.5"/>
<path d="M161.217 56.4283H160.361V843.404H161.217V56.4283Z" fill="white" fill-opacity="0.5"/>
<path d="M82.58 56.4283H81.7234V843.404H82.58V56.4283Z" fill="white" fill-opacity="0.5"/>
<path d="M625.47 435.039V531.435C599.139 548.678 568.538 566.028 537.513 578.359C523.753 583.402 510.634 591.085 496.82 595.478C453.803 568.962 408.863 544.94 365.252 519.15C362.325 517.482 361.283 515.699 361.291 512.324C361.383 438.423 361.383 364.515 361.291 290.598C361.291 287.124 362.48 285.425 365.306 283.827C384.033 273.197 402.694 262.461 421.287 251.62C423.009 250.616 424.152 250.593 425.812 251.543C466.515 274.816 507.231 298.055 547.96 321.261C553.952 324.674 560.13 327.693 563.234 334.596C583.596 368.262 604.127 401.959 625.47 435.039Z" fill="#595959" stroke="black" stroke-width="2" stroke-linejoin="round"/>
<path d="M363.136 288.498C372.225 293.656 380.78 298.482 389.312 303.355C414.227 317.578 439.143 331.811 464.058 346.055C473.787 351.615 483.609 357.02 493.214 362.78C495.548 364.293 497.503 366.322 498.928 368.71C519.267 401.491 539.539 434.308 559.744 467.161C561.332 469.724 562.137 472.694 562.06 475.709C561.983 504.582 561.965 533.453 562.006 562.322C562.006 564.437 561.427 565.333 559.412 566.183C539.127 574.893 518.912 583.78 498.635 592.529C497.606 592.783 496.519 592.622 495.608 592.081C481.946 584.359 468.304 576.614 454.684 568.847C435.946 558.072 417.229 547.262 398.532 536.416C387.482 530.022 376.448 523.59 365.375 517.228C363.538 516.177 362.804 514.957 362.804 512.695C362.861 439.798 362.861 366.893 362.804 293.981C362.866 292.351 363.02 290.714 363.136 288.498Z" fill="#E2E2E2" stroke="black" stroke-linejoin="round"/>
<path d="M406.949 621.848V624.612C406.422 624.818 405.906 625.053 405.404 625.315C388.649 635.013 371.898 644.716 355.152 654.425L276.454 699.882C253.804 712.978 231.154 726.056 208.504 739.116C207.889 739.396 207.222 739.542 206.546 739.542C205.871 739.542 205.203 739.396 204.589 739.116C199.446 736.336 194.458 733.255 189.393 730.321C175.365 722.244 161.325 714.177 147.271 706.121C145.387 705.048 144.661 703.897 145.156 701.488C147.75 688.732 150.028 675.914 152.476 663.143C158.941 629.291 165.414 595.45 171.895 561.619C178.706 526.1 185.794 490.627 192.203 455.061C194.249 442.814 196.589 442.259 203.824 438.282C228.433 424.746 252.586 410.384 276.863 396.276C282.716 392.887 288.445 389.234 294.19 385.698H296.26C296.862 386.224 297.499 386.709 298.167 387.149C316.884 397.96 335.64 408.77 354.28 419.681C355.979 420.748 357.235 422.393 357.816 424.313C361.824 439.757 365.584 455.339 369.399 470.867C379.859 513.439 390.324 556.011 400.795 598.582C402.71 606.327 404.91 614.049 406.949 621.848Z" fill="#E2E2E2" stroke="black" stroke-width="2" stroke-miterlimit="10"/>
<path d="M349.948 416.916C346.195 418.847 342.581 421.063 338.937 423.194C324.219 431.755 309.517 440.341 294.831 448.953C294.326 449.309 293.721 449.497 293.103 449.49C292.485 449.484 291.884 449.282 291.387 448.915C289.179 447.525 286.901 446.266 284.646 444.969L273.905 438.846C273.38 440.39 272.932 441.51 272.593 442.706C270.693 449.285 268.732 455.833 266.964 462.466C266.741 463.421 266.314 464.316 265.711 465.089C265.109 465.862 264.345 466.496 263.474 466.944C257.613 470.226 251.891 473.724 246.084 477.091C243.513 478.581 240.888 479.971 238.401 481.345C229.39 476.651 221.121 471.145 211.808 466.443C211.731 468.249 211.638 469.454 211.631 470.666C211.631 477.909 211.461 485.16 211.692 492.395C211.793 495.831 210.488 497.746 207.538 499.406C192.597 507.776 156.228 529.188 152.908 531.273C152.908 531.273 144.754 527.173 142.507 525.868C135.133 521.567 91.3513 496.611 90 496.055V263.712C97.3046 259.442 104.586 255.164 111.906 250.925C124.389 243.677 136.886 236.447 149.395 229.235C153.811 226.687 158.251 224.193 162.668 221.683L204.295 245.705C204.643 244.701 204.99 243.914 205.191 243.103C209.368 226.278 213.561 209.468 217.63 192.627C217.822 191.605 218.241 190.64 218.857 189.803C219.474 188.966 220.271 188.279 221.19 187.793C233.213 180.944 245.104 173.995 257.065 167.045C267.628 160.93 278.237 154.891 288.762 148.691C290.144 147.872 291.163 147.741 292.491 148.513C297.124 151.224 301.757 153.918 306.39 156.559C316.835 162.592 327.282 168.623 337.732 174.651C342.782 177.57 347.77 180.543 352.82 183.5V410.376C352.789 410.875 352.789 411.375 352.82 411.874C353.114 414.275 352.164 415.789 349.948 416.916Z" fill="#E2E2E2" stroke="black" stroke-width="2" stroke-linecap="round" stroke-linejoin="round"/>
<path d="M207.77 737.672C209.06 730.599 210.202 724.082 211.446 717.595C216.228 692.68 221.02 667.763 225.823 642.843C229.689 622.766 233.55 602.69 237.406 582.614C243.737 549.458 249.999 516.293 256.416 483.152C256.789 481.521 257.769 480.094 259.157 479.16C283.002 465.215 306.895 451.347 330.837 437.556C339.006 432.83 347.184 428.128 355.801 423.155C356.295 424.522 356.805 425.618 357.09 426.761C367.901 470.62 378.711 514.479 389.521 558.337C394.679 579.263 399.814 600.188 405.088 621.083C405.636 623.253 405.042 624.102 403.266 625.129C382.718 636.951 362.241 648.881 341.724 660.749C312.846 677.459 283.956 694.158 255.057 710.847C240.407 719.304 225.736 727.731 211.044 736.127C210.233 736.637 209.276 736.984 207.77 737.672Z" fill="#131313" stroke="white" stroke-miterlimit="10"/>
<path d="M153.016 528.416C152.92 528.419 152.826 528.386 152.753 528.323C152.714 528.285 152.683 528.24 152.662 528.189C152.641 528.139 152.63 528.085 152.63 528.03V467.856C152.63 414.067 152.63 360.273 152.63 306.474C152.63 299.857 152.738 299.671 158.437 296.39L158.514 296.343C177.239 285.533 220.178 260.924 222.912 259.465C222.968 259.44 223.028 259.427 223.09 259.426C223.136 259.419 223.182 259.419 223.228 259.426C223.28 259.445 223.326 259.475 223.365 259.514C223.404 259.552 223.433 259.599 223.452 259.65C226.85 268.607 229.962 277.68 232.973 286.452C234.517 290.861 236.062 295.432 237.606 299.903C240.811 308.976 243.884 317.871 247.142 327.284C248.563 331.402 249.999 335.548 251.451 339.723C253.428 335.739 259.644 310.59 262.732 298.111L266.284 283.772C270.577 266.476 275.01 248.601 279.249 230.988C279.588 229.302 280.303 227.714 281.34 226.342C282.378 224.971 283.711 223.851 285.241 223.065C287.858 221.621 300.352 214.487 313.587 206.935C331.277 196.843 349.569 186.403 350.859 185.785C350.912 185.761 350.97 185.748 351.029 185.747C351.101 185.744 351.171 185.766 351.23 185.809C351.286 185.842 351.332 185.889 351.365 185.946C351.397 186.003 351.415 186.067 351.415 186.133V414.383C351.414 414.452 351.396 414.519 351.362 414.578C351.329 414.638 351.28 414.688 351.222 414.723L339.786 421.395C325.053 429.989 309.819 438.884 294.066 447.71C294.01 447.741 293.946 447.756 293.881 447.756C293.813 447.757 293.746 447.739 293.688 447.702C293.63 447.668 293.581 447.62 293.547 447.562C293.514 447.504 293.495 447.437 293.495 447.37V368.37H293.294C292.152 371.976 282.283 405.712 277.357 422.877C276.204 426.877 275.048 430.879 273.89 434.884C271.388 443.556 268.794 452.528 266.307 461.362C266.05 462.423 265.561 463.415 264.876 464.267C264.192 465.118 263.328 465.808 262.346 466.288C257.543 468.937 252.733 471.763 248.077 474.488C245.94 475.75 243.794 477.003 241.637 478.249C241.161 478.508 240.668 478.735 240.162 478.928L239.212 479.33C239.161 479.341 239.109 479.341 239.058 479.33C239.009 479.341 238.959 479.341 238.911 479.33C238.864 479.311 238.821 479.283 238.785 479.247C238.749 479.211 238.721 479.168 238.703 479.121C238.131 477.778 237.351 475.932 236.386 473.716C229.892 458.273 216.657 426.9 211.09 416.453C210.92 425.031 210.581 471.747 210.604 493.738C210.604 495.005 210.48 496.31 208.936 497.19C193.858 505.761 178.767 514.368 163.664 523.011L154.398 528.285C154.247 528.351 154.084 528.385 153.919 528.385L153.039 528.462L153.016 528.416Z" fill="#EBFF29"/>
<path d="M351.06 186.156V414.414C332.428 425.225 313.703 436.313 293.92 447.393V368.039L293.063 367.915C292.638 369.042 281.952 405.589 277.025 422.738C273.365 435.572 269.582 448.382 265.968 461.238C265.721 462.249 265.255 463.192 264.602 464.002C263.949 464.812 263.127 465.469 262.192 465.925C255.243 469.786 248.378 473.894 241.475 477.894C240.842 478.257 240.139 478.488 239.089 478.952C234.456 468.095 216.642 425.248 210.812 415.009C210.673 415.781 210.249 469.832 210.28 493.715C210.28 495.082 210.102 496.094 208.805 496.804C190.587 507.172 172.392 517.544 154.221 527.922C153.822 527.989 153.42 528.031 153.016 528.046V521.552C153.016 449.864 153.016 378.172 153.016 306.474C153.016 299.926 153.055 299.934 158.707 296.676C177.826 285.641 220.426 261.233 223.09 259.813C228.201 273.279 232.572 286.722 237.267 300.05C241.961 313.377 246.533 326.821 251.351 340.573C253.003 339.538 260.377 309.339 263.829 295.417C269.134 273.989 274.485 252.562 279.651 231.096C279.977 229.464 280.668 227.926 281.672 226.598C282.677 225.271 283.968 224.187 285.449 223.428C291.449 220.116 348.767 187.245 351.083 186.156H351.06ZM351.083 185.384C350.965 185.384 350.849 185.41 350.743 185.461C349.446 186.087 331.146 196.526 313.456 206.626C300.221 214.178 287.72 221.297 285.11 222.749C283.531 223.558 282.156 224.712 281.086 226.127C280.017 227.541 279.28 229.179 278.932 230.918C274.686 248.562 270.238 266.438 265.945 283.796L263.088 295.224L262.393 298.027C259.721 308.837 253.829 332.666 251.513 338.666C250.175 334.81 248.849 330.98 247.536 327.176C244.278 317.763 241.205 308.868 238.008 299.787C236.425 295.317 234.865 290.753 233.375 286.336C230.364 277.565 227.252 268.492 223.854 259.527C223.815 259.424 223.753 259.331 223.675 259.254C223.596 259.176 223.502 259.117 223.399 259.079C223.312 259.048 223.22 259.032 223.128 259.033C223.002 259.031 222.878 259.06 222.765 259.118C220.017 260.585 177.061 285.186 158.313 295.996L158.236 296.042C152.398 299.409 152.236 299.702 152.236 306.466C152.236 360.183 152.236 413.902 152.236 467.624V528.038C152.236 528.243 152.318 528.439 152.462 528.584C152.607 528.729 152.804 528.81 153.008 528.81H153.086L153.958 528.733C154.166 528.734 154.372 528.689 154.561 528.602H154.599L163.548 523.498C178.497 515.004 193.964 506.155 209.175 497.499C210.905 496.526 211.044 495.036 211.044 493.715C211.044 473.091 211.33 429.549 211.507 417.959C217.407 429.541 229.846 459.045 236.085 473.84L238.402 479.245C238.441 479.339 238.499 479.425 238.572 479.496C238.645 479.568 238.732 479.624 238.826 479.662C238.917 479.699 239.014 479.718 239.112 479.716C239.218 479.715 239.323 479.694 239.421 479.654C239.768 479.5 240.077 479.376 240.355 479.261C240.885 479.058 241.401 478.821 241.9 478.55C244.054 477.307 246.193 476.048 248.339 474.797C252.972 472.064 257.806 469.246 262.601 466.597C263.624 466.087 264.525 465.362 265.242 464.472C265.959 463.582 266.475 462.547 266.755 461.439C269.226 452.621 271.813 443.679 274.315 435.008C275.483 430.993 276.644 426.975 277.797 422.955C282.253 407.434 290.77 378.308 293.179 370.27V447.393C293.179 447.598 293.26 447.795 293.405 447.939C293.55 448.084 293.746 448.166 293.951 448.166C294.084 448.165 294.214 448.131 294.329 448.065C310.089 439.239 325.324 430.306 340.064 421.735L351.485 415.079C351.601 415.011 351.698 414.914 351.766 414.798C351.834 414.681 351.87 414.549 351.871 414.414V186.156C351.871 186.025 351.838 185.896 351.774 185.781C351.711 185.666 351.619 185.569 351.508 185.5C351.385 185.424 351.243 185.384 351.098 185.384H351.083Z" fill="black"/>
<path d="M1205.23 295.52C1149.83 295.97 1113.41 346.59 1113.85 422.52C1113.41 346.58 1076.39 296.52 1021 297C1076.39 296.55 1113.39 245.92 1113.8 170C1113.39 245.93 1149.83 295.97 1205.23 295.52Z" stroke="white" stroke-linecap="round" stroke-linejoin="round"/>
<path d="M881 709C1066.02 709 1216 668.034 1216 617.5C1216 566.966 1066.02 526 881 526C695.985 526 546 566.966 546 617.5C546 668.034 695.985 709 881 709Z" fill="#232323" stroke="white" stroke-miterlimit="10"/>
<path d="M522.667 346.284C522.667 367.468 509.205 380.43 487.21 380.43H455.373V312.129H487.21C509.205 312.129 522.667 325.091 522.667 346.284ZM506.699 346.284C506.699 333.026 499.067 325.591 485.605 325.591H471.046V366.968H485.605C499.051 366.968 506.699 359.541 506.699 346.284Z" fill="white" stroke="black" stroke-width="2" stroke-miterlimit="10"/>
<path d="M579.815 365.969H549.001L542.876 380.43H526.499L556.723 312.129H572.798L603.046 380.43H585.94L579.815 365.969ZM554.512 352.908H574.296L564.47 328.105L554.512 352.908Z" fill="white" stroke="black" stroke-width="2" stroke-miterlimit="10"/>
<path d="M606.74 346.284C606.74 325.091 621.807 310.925 644.301 310.925C666.795 310.925 681.862 325.091 681.862 346.284C681.862 367.476 666.795 381.634 644.301 381.634C621.807 381.634 606.74 367.468 606.74 346.284ZM665.895 346.284C665.895 333.526 657.157 324.788 644.301 324.788C631.445 324.788 622.699 333.526 622.699 346.284C622.699 359.042 631.437 367.771 644.293 367.771C657.149 367.771 665.895 359.017 665.895 346.284Z" fill="white" stroke="black" stroke-width="2" stroke-miterlimit="10"/>
<path d="M501.303 227.311H493.933V194.36L478.989 227.311H473.543L458.632 194.36V227.311H451.557V185.737H462.071L476.434 217.468L490.805 185.737H501.319L501.303 227.311Z" fill="white"/>
<path d="M519.826 192.1V203.162H545.317V209.517H519.826V220.981H549.305V227.335H512.456V185.737H549.305V192.1H519.826Z" fill="white"/>
<path d="M594.293 192.1H578.211V227.311H570.841V192.1H554.734V185.737H594.293V192.1Z" fill="white"/>
<path d="M624.247 217.353H603.342L598.879 227.319H591.108L610.187 185.745H617.705L636.784 227.319H628.71L624.247 217.353ZM606.093 211.122H621.496L613.79 193.385L606.093 211.122Z" fill="white"/>
<path d="M678.906 185.737L660.687 227.311H653.104L634.884 185.737H642.958L657.092 218.876L671.217 185.737H678.906Z" fill="white"/>
<path d="M693.941 192.1V203.162H719.44V209.517H693.941V220.981H723.42V227.335H686.571V185.737H723.42V192.1H693.941Z" fill="white"/>
<path d="M764.248 227.311L752.899 211.048H739.445V227.311H732.075V185.737H756.895C766.066 185.737 771.078 190.2 771.078 198.397C771.078 205.12 767.655 209.337 761.358 210.622L773.092 227.311H764.248ZM739.429 204.694H755.806C761.006 204.694 763.511 202.614 763.511 198.397C763.511 194.18 761.006 192.1 755.806 192.1H739.429V204.694Z" fill="white"/>
<path d="M778.128 222.054L781.305 216.182C786.369 219.739 792.42 221.62 798.608 221.562C806.313 221.562 810.408 219.482 810.408 215.388C810.408 211.965 807.411 210.622 798.182 209.951C784.851 208.911 779.962 205.668 779.962 197.782C779.962 189.774 786.751 185 798.239 185C805.093 185 810.899 186.711 815.607 190.02L812.668 195.752C808.408 192.841 803.34 191.346 798.182 191.477C791.516 191.477 787.479 193.68 787.479 197.471C787.479 200.894 790.419 202.237 799.648 202.909C813.036 203.949 817.925 207.191 817.925 215.077C817.925 223.511 811.145 228.04 798.673 228.04C790.566 228.048 783.565 225.968 778.128 222.054Z" fill="white"/>
<path d="M833.827 192.1V203.162H859.351V209.517H833.86V220.981H863.339V227.335H826.49V185.737H863.339V192.1H833.827Z" fill="white"/>
<path d="M484.139 283.059H463.226L458.763 293.025H451L470.071 251.451H477.597L496.668 293.025H488.602L484.139 283.059ZM465.977 276.828H481.388L473.666 259.115L465.977 276.828Z" fill="white"/>
<path d="M544.719 272.217C544.719 284.992 536.465 293 523.265 293H504.308V251.451H523.265C536.465 251.451 544.719 259.459 544.719 272.217ZM537.202 272.217C537.202 263.21 531.699 257.789 522.462 257.789H511.711V286.646H522.471C531.699 286.67 537.202 281.29 537.202 272.217Z" fill="white"/>
<path d="M591.738 251.451L573.518 293.025H565.936L547.716 251.451H555.79L569.915 284.59L584.032 251.451H591.738Z" fill="white"/>
<path d="M606.781 257.813V268.876H632.272V275.239H606.781V286.703H636.26V293.057H599.411V251.451H636.26V257.813H606.781Z" fill="white"/>
<path d="M677.088 293.025L665.714 276.762H652.26V293.025H644.891V251.451H669.71C678.882 251.451 683.893 255.914 683.893 264.111C683.893 270.833 680.47 275.051 674.173 276.336L685.916 293.025H677.088ZM652.26 270.408H668.638C673.837 270.408 676.343 268.328 676.343 264.111C676.343 259.893 673.837 257.813 668.638 257.813H652.26V270.408Z" fill="white"/>
<path d="M730.274 257.813H714.191V293.025H706.821V257.813H690.714V251.451H730.274V257.813Z" fill="white"/>
<path d="M738.217 251.451H745.587V293.025H738.217V251.451Z" fill="white"/>
<path d="M753.808 287.776L756.994 281.913C762.056 285.465 768.103 287.346 774.288 287.293C781.993 287.293 786.088 285.213 786.088 281.118C786.088 277.687 783.099 276.344 773.862 275.673C760.539 274.633 755.642 271.39 755.642 263.504C755.642 255.496 762.431 250.73 773.928 250.73C780.773 250.73 786.579 252.442 791.288 255.742L788.356 261.474C784.095 258.559 779.023 257.06 773.862 257.191C767.197 257.191 763.168 259.394 763.168 263.185C763.168 266.608 766.099 267.951 775.328 268.622C788.716 269.662 793.613 272.905 793.613 280.791C793.613 289.233 786.825 293.753 774.353 293.753C766.279 293.762 759.254 291.682 753.808 287.776Z" fill="white"/>
<path d="M809.507 257.813V268.876H834.998V275.239H809.507V286.703H838.986V293.057H802.137V251.451H838.986V257.813H809.507Z" fill="white"/>
<path d="M897.363 293.025H889.994V260.074L875.074 293.025H869.637L854.717 260.074V293.025H847.625V251.451H858.14L872.453 283.182L886.816 251.451H897.339L897.363 293.025Z" fill="white"/>
<path d="M915.853 257.813V268.876H941.344V275.239H915.853V286.703H945.332V293.057H908.483V251.451H945.332V257.813H915.853Z" fill="white"/>
<path d="M993.53 251.451V293.025H986.619L961.062 259.771V293.025H953.971V251.451H963.265L986.439 281.593V251.451H993.53Z" fill="white"/>
<path d="M1040.97 257.813H1024.89V293.025H1017.52V257.813H1001.45V251.451H1041L1040.97 257.813Z" fill="white"/>
<path d="M664.52 586.37V584.6H647V605H649.01V595.64H662.57V593.87H649.01V586.37H664.52Z" fill="white"/>
<path d="M674.831 589.7C672.131 589.7 669.971 590.3 668.111 591.53L668.921 593.06C670.511 591.95 672.431 591.44 674.681 591.44C678.551 591.44 680.261 593 680.261 596.57V597.95C678.281 596.78 675.701 596.09 673.241 596.09C669.341 596.09 667.091 597.8 667.091 600.71C667.091 603.59 669.281 605.36 672.821 605.36C675.761 605.36 678.401 604.16 680.261 601.91V605H682.181V596.36C682.181 591.77 679.871 589.7 674.831 589.7ZM680.261 600.29C678.611 602.39 675.941 603.65 673.121 603.65C670.541 603.65 669.041 602.57 669.041 600.68C669.041 598.76 670.601 597.74 673.601 597.74C676.001 597.74 678.431 598.37 680.261 599.51V600.29Z" fill="white"/>
<path d="M694.718 605.36C696.998 605.36 698.978 604.79 700.748 603.53L699.938 601.94C698.348 603.08 696.758 603.62 694.838 603.62C690.758 603.62 688.148 601.25 688.148 597.53C688.148 593.84 690.728 591.44 694.598 591.44C696.368 591.44 698.018 591.89 699.428 592.88L700.178 591.29C698.588 590.21 696.698 589.7 694.568 589.7C689.528 589.7 686.168 592.79 686.168 597.56C686.168 602.27 689.468 605.36 694.718 605.36Z" fill="white"/>
<path d="M705.432 586.88C706.302 586.88 706.872 586.31 706.872 585.5C706.872 584.69 706.302 584.12 705.432 584.12C704.562 584.12 703.992 584.69 703.992 585.5C703.992 586.31 704.562 586.88 705.432 586.88ZM704.472 605H706.392V590.06H704.472V605Z" fill="white"/>
<path d="M711.679 605H713.599V583.7H711.679V605Z" fill="white"/>
<path d="M719.846 586.88C720.716 586.88 721.286 586.31 721.286 585.5C721.286 584.69 720.716 584.12 719.846 584.12C718.976 584.12 718.406 584.69 718.406 585.5C718.406 586.31 718.976 586.88 719.846 586.88ZM718.886 605H720.806V590.06H718.886V605Z" fill="white"/>
<path d="M736.803 602.81C735.843 603.35 734.793 603.62 733.623 603.62C731.583 603.62 730.623 602.75 730.623 600.77V591.65H736.953V590.06H730.623V584.6H728.703V590.06H724.323V591.65H728.703V600.95C728.703 603.89 730.323 605.36 733.473 605.36C734.943 605.36 736.203 605.06 737.373 604.43L736.803 602.81Z" fill="white"/>
<path d="M747.751 589.7C745.051 589.7 742.891 590.3 741.031 591.53L741.841 593.06C743.431 591.95 745.351 591.44 747.601 591.44C751.471 591.44 753.181 593 753.181 596.57V597.95C751.201 596.78 748.621 596.09 746.161 596.09C742.261 596.09 740.011 597.8 740.011 600.71C740.011 603.59 742.201 605.36 745.741 605.36C748.681 605.36 751.321 604.16 753.181 601.91V605H755.101V596.36C755.101 591.77 752.791 589.7 747.751 589.7ZM753.181 600.29C751.531 602.39 748.861 603.65 746.041 603.65C743.461 603.65 741.961 602.57 741.961 600.68C741.961 598.76 743.521 597.74 746.521 597.74C748.921 597.74 751.351 598.37 753.181 599.51V600.29Z" fill="white"/>
<path d="M770.729 602.81C769.769 603.35 768.719 603.62 767.549 603.62C765.509 603.62 764.549 602.75 764.549 600.77V591.65H770.879V590.06H764.549V584.6H762.629V590.06H758.249V591.65H762.629V600.95C762.629 603.89 764.249 605.36 767.399 605.36C768.869 605.36 770.129 605.06 771.299 604.43L770.729 602.81Z" fill="white"/>
<path d="M790.617 598.1V597.53C790.617 592.85 787.317 589.7 782.397 589.7C777.477 589.7 774.147 592.85 774.147 597.53C774.147 602.3 777.597 605.36 783.087 605.36C785.757 605.36 787.977 604.67 789.807 603.23L789.027 601.67C787.317 603.02 785.487 603.62 783.207 603.62C779.037 603.62 776.367 601.55 776.127 598.1H790.617ZM782.457 591.44C785.847 591.44 788.277 593.42 788.727 596.48H776.157C776.607 593.42 779.037 591.44 782.457 591.44Z" fill="white"/>
<path d="M823.74 605L817.23 596.24C820.77 595.94 822.75 593.87 822.75 590.42C822.75 586.7 820.41 584.6 816.27 584.6H804.09V605H806.1V596.27H814.8L821.28 605H823.74ZM806.1 586.37H815.85C819.09 586.37 820.68 587.69 820.68 590.42C820.68 593.18 819.09 594.5 815.85 594.5H806.1V586.37Z" fill="white"/>
<path d="M843.146 598.1V597.53C843.146 592.85 839.846 589.7 834.926 589.7C830.006 589.7 826.676 592.85 826.676 597.53C826.676 602.3 830.126 605.36 835.616 605.36C838.286 605.36 840.506 604.67 842.336 603.23L841.556 601.67C839.846 603.02 838.016 603.62 835.736 603.62C831.566 603.62 828.896 601.55 828.656 598.1H843.146ZM834.986 591.44C838.376 591.44 840.806 593.42 841.256 596.48H828.686C829.136 593.42 831.566 591.44 834.986 591.44Z" fill="white"/>
<path d="M859.371 590.06L853.221 602.81L847.041 590.06H844.911L852.201 605H854.151L861.411 590.06H859.371Z" fill="white"/>
<path d="M879.65 598.1V597.53C879.65 592.85 876.35 589.7 871.43 589.7C866.51 589.7 863.18 592.85 863.18 597.53C863.18 602.3 866.63 605.36 872.12 605.36C874.79 605.36 877.01 604.67 878.84 603.23L878.06 601.67C876.35 603.02 874.52 603.62 872.24 603.62C868.07 603.62 865.4 601.55 865.16 598.1H879.65ZM871.49 591.44C874.88 591.44 877.31 593.42 877.76 596.48H865.19C865.64 593.42 868.07 591.44 871.49 591.44Z" fill="white"/>
<path d="M892.529 589.7C889.829 589.7 887.549 590.84 885.689 593.12V590.06H883.769V605H885.689V594.77C887.399 592.64 889.529 591.44 892.049 591.44C894.899 591.44 896.429 592.97 896.429 595.82V605H898.349V595.52C898.349 591.83 896.189 589.7 892.529 589.7Z" fill="white"/>
<path d="M915.759 590.06V600.26C914.049 602.39 911.919 603.62 909.399 603.62C906.549 603.62 905.019 602.06 905.019 599.21V590.06H903.099V599.54C903.099 603.23 905.259 605.36 908.919 605.36C911.619 605.36 913.899 604.19 915.759 601.91V605H917.679V590.06H915.759Z" fill="white"/>
<path d="M938.478 598.1V597.53C938.478 592.85 935.178 589.7 930.258 589.7C925.338 589.7 922.008 592.85 922.008 597.53C922.008 602.3 925.458 605.36 930.948 605.36C933.618 605.36 935.838 604.67 937.668 603.23L936.888 601.67C935.178 603.02 933.348 603.62 931.068 603.62C926.898 603.62 924.228 601.55 923.988 598.1H938.478ZM930.318 591.44C933.708 591.44 936.138 593.42 936.588 596.48H924.018C924.468 593.42 926.898 591.44 930.318 591.44Z" fill="white"/>
<path d="M941.564 597.71H948.734V595.79H941.564V597.71Z" fill="white"/>
<path d="M972.701 594.26H963.191V596.03H970.721V601.64C968.741 602.93 966.671 603.5 964.241 603.5C958.331 603.5 954.581 600.08 954.581 594.77C954.581 589.55 958.241 586.1 963.941 586.1C966.371 586.1 968.561 586.73 970.661 588.14L971.471 586.43C969.371 584.96 966.791 584.24 963.941 584.24C957.011 584.24 952.511 588.44 952.511 594.83C952.511 601.19 957.041 605.36 964.091 605.36C967.481 605.36 970.451 604.4 972.701 602.57V594.26Z" fill="white"/>
<path d="M993.175 598.1V597.53C993.175 592.85 989.875 589.7 984.955 589.7C980.035 589.7 976.705 592.85 976.705 597.53C976.705 602.3 980.155 605.36 985.645 605.36C988.315 605.36 990.535 604.67 992.365 603.23L991.585 601.67C989.875 603.02 988.045 603.62 985.765 603.62C981.595 603.62 978.925 601.55 978.685 598.1H993.175ZM985.015 591.44C988.405 591.44 990.835 593.42 991.285 596.48H978.715C979.165 593.42 981.595 591.44 985.015 591.44Z" fill="white"/>
<path d="M1006.05 589.7C1003.35 589.7 1001.07 590.84 999.214 593.12V590.06H997.294V605H999.214V594.77C1000.92 592.64 1003.05 591.44 1005.57 591.44C1008.42 591.44 1009.95 592.97 1009.95 595.82V605H1011.87V595.52C1011.87 591.83 1009.71 589.7 1006.05 589.7Z" fill="white"/>
<path d="M1032.4 598.1V597.53C1032.4 592.85 1029.1 589.7 1024.18 589.7C1019.26 589.7 1015.93 592.85 1015.93 597.53C1015.93 602.3 1019.38 605.36 1024.87 605.36C1027.54 605.36 1029.76 604.67 1031.59 603.23L1030.81 601.67C1029.1 603.02 1027.27 603.62 1024.99 603.62C1020.82 603.62 1018.15 601.55 1017.91 598.1H1032.4ZM1024.24 591.44C1027.63 591.44 1030.06 593.42 1030.51 596.48H1017.94C1018.39 593.42 1020.82 591.44 1024.24 591.44Z" fill="white"/>
<path d="M1045.4 589.7C1042.43 589.7 1040.24 590.96 1038.44 593.39V590.06H1036.52V605H1038.44V595.04C1040.3 592.7 1042.46 591.59 1045.13 591.59C1045.55 591.59 1046.12 591.62 1046.51 591.71L1046.63 589.79C1046.3 589.73 1045.85 589.7 1045.4 589.7Z" fill="white"/>
<path d="M1056.75 589.7C1054.05 589.7 1051.89 590.3 1050.03 591.53L1050.84 593.06C1052.43 591.95 1054.35 591.44 1056.6 591.44C1060.47 591.44 1062.18 593 1062.18 596.57V597.95C1060.2 596.78 1057.62 596.09 1055.16 596.09C1051.26 596.09 1049.01 597.8 1049.01 600.71C1049.01 603.59 1051.2 605.36 1054.74 605.36C1057.68 605.36 1060.32 604.16 1062.18 601.91V605H1064.1V596.36C1064.1 591.77 1061.79 589.7 1056.75 589.7ZM1062.18 600.29C1060.53 602.39 1057.86 603.65 1055.04 603.65C1052.46 603.65 1050.96 602.57 1050.96 600.68C1050.96 598.76 1052.52 597.74 1055.52 597.74C1057.92 597.74 1060.35 598.37 1062.18 599.51V600.29Z" fill="white"/>
<path d="M1079.72 602.81C1078.76 603.35 1077.71 603.62 1076.54 603.62C1074.5 603.62 1073.54 602.75 1073.54 600.77V591.65H1079.87V590.06H1073.54V584.6H1071.62V590.06H1067.24V591.65H1071.62V600.95C1071.62 603.89 1073.24 605.36 1076.39 605.36C1077.86 605.36 1079.12 605.06 1080.29 604.43L1079.72 602.81Z" fill="white"/>
<path d="M1085.06 586.88C1085.93 586.88 1086.5 586.31 1086.5 585.5C1086.5 584.69 1085.93 584.12 1085.06 584.12C1084.19 584.12 1083.62 584.69 1083.62 585.5C1083.62 586.31 1084.19 586.88 1085.06 586.88ZM1084.1 605H1086.02V590.06H1084.1V605Z" fill="white"/>
<path d="M1100.07 589.7C1097.37 589.7 1095.09 590.84 1093.23 593.12V590.06H1091.31V605H1093.23V594.77C1094.94 592.64 1097.07 591.44 1099.59 591.44C1102.44 591.44 1103.97 592.97 1103.97 595.82V605H1105.89V595.52C1105.89 591.83 1103.73 589.7 1100.07 589.7Z" fill="white"/>
<path d="M1123.84 590.06V593.12C1122.13 590.84 1120 589.7 1117.42 589.7C1113.04 589.7 1109.98 592.91 1109.98 597.53C1109.98 602.15 1113.04 605.36 1117.42 605.36C1120 605.36 1122.13 604.22 1123.84 601.91V603.56C1123.84 607.4 1121.68 609.32 1117.42 609.32C1115.38 609.32 1113.7 608.87 1111.96 607.82L1111.27 609.41C1113.07 610.52 1115.11 611.06 1117.57 611.06C1122.91 611.06 1125.76 608.54 1125.76 603.8V590.06H1123.84ZM1123.84 600.23C1122.22 602.42 1120.09 603.62 1117.72 603.62C1114.24 603.62 1111.96 601.16 1111.96 597.53C1111.96 593.87 1114.24 591.44 1117.72 591.44C1120.09 591.44 1122.22 592.61 1123.84 594.83V600.23Z" fill="white"/>
<path d="M662.12 632.53C664.34 631.78 665.51 630.19 665.51 627.85C665.51 624.46 663.17 622.6 658.85 622.6H647V643H659.27C663.74 643 666.17 641.08 666.17 637.57C666.17 634.96 664.76 633.22 662.12 632.53ZM649.01 624.37H658.73C661.91 624.37 663.5 625.6 663.5 628.03C663.5 630.46 661.85 631.78 658.88 631.78H649.01V624.37ZM659.09 641.23H649.01V633.55H659.18C662.48 633.55 664.1 634.84 664.1 637.42C664.1 639.94 662.36 641.23 659.09 641.23Z" fill="white"/>
<path d="M683.112 628.06V638.26C681.402 640.39 679.272 641.62 676.752 641.62C673.902 641.62 672.372 640.06 672.372 637.21V628.06H670.452V637.54C670.452 641.23 672.612 643.36 676.272 643.36C678.972 643.36 681.252 642.19 683.112 639.91V643H685.032V628.06H683.112Z" fill="white"/>
<path d="M696.862 643.36C701.482 643.36 704.122 641.71 704.122 638.8C704.122 636.04 702.292 634.93 697.222 634.57C692.872 634.27 691.642 633.7 691.642 632.08C691.642 630.43 693.442 629.38 696.442 629.38C698.782 629.38 700.882 629.98 702.352 631.06L703.162 629.53C701.422 628.3 699.142 627.7 696.562 627.7C692.362 627.7 689.692 629.41 689.692 632.17C689.692 634.93 691.492 636.04 696.622 636.4C700.942 636.7 702.172 637.24 702.172 638.89C702.172 640.63 700.222 641.65 696.892 641.65C694.072 641.65 691.792 640.9 689.902 639.58L689.002 641.11C690.982 642.52 693.652 643.36 696.862 643.36Z" fill="white"/>
<path d="M709.123 624.88C709.993 624.88 710.563 624.31 710.563 623.5C710.563 622.69 709.993 622.12 709.123 622.12C708.253 622.12 707.683 622.69 707.683 623.5C707.683 624.31 708.253 624.88 709.123 624.88ZM708.163 643H710.083V628.06H708.163V643Z" fill="white"/>
<path d="M724.13 627.7C721.43 627.7 719.15 628.84 717.29 631.12V628.06H715.37V643H717.29V632.77C719 630.64 721.13 629.44 723.65 629.44C726.5 629.44 728.03 630.97 728.03 633.82V643H729.95V633.52C729.95 629.83 727.79 627.7 724.13 627.7Z" fill="white"/>
<path d="M750.48 636.1V635.53C750.48 630.85 747.18 627.7 742.26 627.7C737.34 627.7 734.01 630.85 734.01 635.53C734.01 640.3 737.46 643.36 742.95 643.36C745.62 643.36 747.84 642.67 749.67 641.23L748.89 639.67C747.18 641.02 745.35 641.62 743.07 641.62C738.9 641.62 736.23 639.55 735.99 636.1H750.48ZM742.32 629.44C745.71 629.44 748.14 631.42 748.59 634.48H736.02C736.47 631.42 738.9 629.44 742.32 629.44Z" fill="white"/>
<path d="M761.139 643.36C765.759 643.36 768.399 641.71 768.399 638.8C768.399 636.04 766.569 634.93 761.499 634.57C757.149 634.27 755.919 633.7 755.919 632.08C755.919 630.43 757.719 629.38 760.719 629.38C763.059 629.38 765.159 629.98 766.629 631.06L767.439 629.53C765.699 628.3 763.419 627.7 760.839 627.7C756.639 627.7 753.969 629.41 753.969 632.17C753.969 634.93 755.769 636.04 760.899 636.4C765.219 636.7 766.449 637.24 766.449 638.89C766.449 640.63 764.499 641.65 761.169 641.65C758.349 641.65 756.069 640.9 754.179 639.58L753.279 641.11C755.259 642.52 757.929 643.36 761.139 643.36Z" fill="white"/>
<path d="M778.981 643.36C783.601 643.36 786.241 641.71 786.241 638.8C786.241 636.04 784.411 634.93 779.341 634.57C774.991 634.27 773.761 633.7 773.761 632.08C773.761 630.43 775.561 629.38 778.561 629.38C780.901 629.38 783.001 629.98 784.471 631.06L785.281 629.53C783.541 628.3 781.261 627.7 778.681 627.7C774.481 627.7 771.811 629.41 771.811 632.17C771.811 634.93 773.611 636.04 778.741 636.4C783.061 636.7 784.291 637.24 784.291 638.89C784.291 640.63 782.341 641.65 779.011 641.65C776.191 641.65 773.911 640.9 772.021 639.58L771.121 641.11C773.101 642.52 775.771 643.36 778.981 643.36Z" fill="white"/>
<path d="M805.793 636.1V635.53C805.793 630.85 802.493 627.7 797.573 627.7C792.653 627.7 789.323 630.85 789.323 635.53C789.323 640.3 792.773 643.36 798.263 643.36C800.933 643.36 803.153 642.67 804.983 641.23L804.203 639.67C802.493 641.02 800.663 641.62 798.383 641.62C794.213 641.62 791.543 639.55 791.303 636.1H805.793ZM797.633 629.44C801.023 629.44 803.453 631.42 803.903 634.48H791.333C791.783 631.42 794.213 629.44 797.633 629.44Z" fill="white"/>
<path d="M816.451 643.36C821.071 643.36 823.711 641.71 823.711 638.8C823.711 636.04 821.881 634.93 816.811 634.57C812.461 634.27 811.231 633.7 811.231 632.08C811.231 630.43 813.031 629.38 816.031 629.38C818.371 629.38 820.471 629.98 821.941 631.06L822.751 629.53C821.011 628.3 818.731 627.7 816.151 627.7C811.951 627.7 809.281 629.41 809.281 632.17C809.281 634.93 811.081 636.04 816.211 636.4C820.531 636.7 821.761 637.24 821.761 638.89C821.761 640.63 819.811 641.65 816.481 641.65C813.661 641.65 811.381 640.9 809.491 639.58L808.591 641.11C810.571 642.52 813.241 643.36 816.451 643.36Z" fill="white"/>
<path d="M837.707 624.88C838.577 624.88 839.147 624.31 839.147 623.5C839.147 622.69 838.577 622.12 837.707 622.12C836.837 622.12 836.267 622.69 836.267 623.5C836.267 624.31 836.837 624.88 837.707 624.88ZM836.747 643H838.667V628.06H836.747V643Z" fill="white"/>
<path d="M852.714 627.7C850.014 627.7 847.734 628.84 845.874 631.12V628.06H843.954V643H845.874V632.77C847.584 630.64 849.714 629.44 852.234 629.44C855.084 629.44 856.614 630.97 856.614 633.82V643H858.534V633.52C858.534 629.83 856.374 627.7 852.714 627.7Z" fill="white"/>
<path d="M883.258 640.81C882.298 641.35 881.248 641.62 880.078 641.62C878.038 641.62 877.078 640.75 877.078 638.77V629.65H883.408V628.06H877.078V622.6H875.158V628.06H870.778V629.65H875.158V638.95C875.158 641.89 876.778 643.36 879.928 643.36C881.398 643.36 882.658 643.06 883.828 642.43L883.258 640.81Z" fill="white"/>
<path d="M896.396 627.7C893.696 627.7 891.416 628.84 889.556 631.12V621.7H887.636V643H889.556V632.77C891.266 630.64 893.396 629.44 895.916 629.44C898.766 629.44 900.296 630.97 900.296 633.82V643H902.216V633.52C902.216 629.83 900.056 627.7 896.396 627.7Z" fill="white"/>
<path d="M922.746 636.1V635.53C922.746 630.85 919.446 627.7 914.526 627.7C909.606 627.7 906.276 630.85 906.276 635.53C906.276 640.3 909.726 643.36 915.216 643.36C917.886 643.36 920.106 642.67 921.936 641.23L921.156 639.67C919.446 641.02 917.616 641.62 915.336 641.62C911.166 641.62 908.496 639.55 908.256 636.1H922.746ZM914.586 629.44C917.976 629.44 920.406 631.42 920.856 634.48H908.286C908.736 631.42 911.166 629.44 914.586 629.44Z" fill="white"/>
<path d="M959.379 622.6H956.379L947.799 640.42L939.189 622.6H936.219V643H938.169V624.85L946.929 643H948.579L957.369 624.79V643H959.379V622.6Z" fill="white"/>
<path d="M980.49 636.1V635.53C980.49 630.85 977.19 627.7 972.27 627.7C967.35 627.7 964.02 630.85 964.02 635.53C964.02 640.3 967.47 643.36 972.96 643.36C975.63 643.36 977.85 642.67 979.68 641.23L978.9 639.67C977.19 641.02 975.36 641.62 973.08 641.62C968.91 641.62 966.24 639.55 966 636.1H980.49ZM972.33 629.44C975.72 629.44 978.15 631.42 978.6 634.48H966.03C966.48 631.42 968.91 629.44 972.33 629.44Z" fill="white"/>
<path d="M995.289 640.81C994.329 641.35 993.279 641.62 992.109 641.62C990.069 641.62 989.109 640.75 989.109 638.77V629.65H995.439V628.06H989.109V622.6H987.189V628.06H982.809V629.65H987.189V638.95C987.189 641.89 988.809 643.36 991.959 643.36C993.429 643.36 994.689 643.06 995.859 642.43L995.289 640.81Z" fill="white"/>
<path d="M1006.24 627.7C1003.54 627.7 1001.38 628.3 999.517 629.53L1000.33 631.06C1001.92 629.95 1003.84 629.44 1006.09 629.44C1009.96 629.44 1011.67 631 1011.67 634.57V635.95C1009.69 634.78 1007.11 634.09 1004.65 634.09C1000.75 634.09 998.497 635.8 998.497 638.71C998.497 641.59 1000.69 643.36 1004.23 643.36C1007.17 643.36 1009.81 642.16 1011.67 639.91V643H1013.59V634.36C1013.59 629.77 1011.28 627.7 1006.24 627.7ZM1011.67 638.29C1010.02 640.39 1007.35 641.65 1004.53 641.65C1001.95 641.65 1000.45 640.57 1000.45 638.68C1000.45 636.76 1002.01 635.74 1005.01 635.74C1007.41 635.74 1009.84 636.37 1011.67 637.51V638.29Z" fill="white"/>
<path d="M1031.2 628.06L1025.05 640.81L1018.87 628.06H1016.74L1024.03 643H1025.98L1033.24 628.06H1031.2Z" fill="white"/>
<path d="M1051.48 636.1V635.53C1051.48 630.85 1048.18 627.7 1043.26 627.7C1038.34 627.7 1035.01 630.85 1035.01 635.53C1035.01 640.3 1038.46 643.36 1043.95 643.36C1046.62 643.36 1048.84 642.67 1050.67 641.23L1049.89 639.67C1048.18 641.02 1046.35 641.62 1044.07 641.62C1039.9 641.62 1037.23 639.55 1036.99 636.1H1051.48ZM1043.32 629.44C1046.71 629.44 1049.14 631.42 1049.59 634.48H1037.02C1037.47 631.42 1039.9 629.44 1043.32 629.44Z" fill="white"/>
<path d="M1064.48 627.7C1061.51 627.7 1059.32 628.96 1057.52 631.39V628.06H1055.6V643H1057.52V633.04C1059.38 630.7 1061.54 629.59 1064.21 629.59C1064.63 629.59 1065.2 629.62 1065.59 629.71L1065.71 627.79C1065.38 627.73 1064.93 627.7 1064.48 627.7Z" fill="white"/>
<path d="M1075.7 643.36C1080.32 643.36 1082.96 641.71 1082.96 638.8C1082.96 636.04 1081.13 634.93 1076.06 634.57C1071.71 634.27 1070.48 633.7 1070.48 632.08C1070.48 630.43 1072.28 629.38 1075.28 629.38C1077.62 629.38 1079.72 629.98 1081.19 631.06L1082 629.53C1080.26 628.3 1077.98 627.7 1075.4 627.7C1071.2 627.7 1068.53 629.41 1068.53 632.17C1068.53 634.93 1070.33 636.04 1075.46 636.4C1079.78 636.7 1081.01 637.24 1081.01 638.89C1081.01 640.63 1079.06 641.65 1075.73 641.65C1072.91 641.65 1070.63 640.9 1068.74 639.58L1067.84 641.11C1069.82 642.52 1072.49 643.36 1075.7 643.36Z" fill="white"/>
<path d="M1102.51 636.1V635.53C1102.51 630.85 1099.21 627.7 1094.29 627.7C1089.37 627.7 1086.04 630.85 1086.04 635.53C1086.04 640.3 1089.49 643.36 1094.98 643.36C1097.65 643.36 1099.87 642.67 1101.7 641.23L1100.92 639.67C1099.21 641.02 1097.38 641.62 1095.1 641.62C1090.93 641.62 1088.26 639.55 1088.02 636.1H1102.51ZM1094.35 629.44C1097.74 629.44 1100.17 631.42 1100.62 634.48H1088.05C1088.5 631.42 1090.93 629.44 1094.35 629.44Z" fill="white"/>
<path d="M1107.57 643.36C1108.44 643.36 1109.07 642.76 1109.07 641.89C1109.07 641.02 1108.44 640.42 1107.57 640.42C1106.7 640.42 1106.07 641.02 1106.07 641.89C1106.07 642.76 1106.7 643.36 1107.57 643.36Z" fill="white"/>
</svg>
