<svg width="133" height="133" viewBox="0 0 133 133" fill="none" xmlns="http://www.w3.org/2000/svg">
<path d="M114.203 65.0637L122.999 60.187L123.034 86.255L114.114 91.5395L114.203 65.0637Z" fill="white"/>
<path d="M114.114 91.7168C114.079 91.7168 114.061 91.7168 114.026 91.6991C113.972 91.6636 113.937 91.6104 113.937 91.5395L114.026 65.0636C114.026 64.9927 114.061 64.9395 114.114 64.904L122.91 60.0273C122.963 59.9919 123.034 59.9919 123.087 60.0273C123.141 60.0628 123.176 60.116 123.176 60.1869L123.212 86.2549C123.212 86.3259 123.176 86.3791 123.123 86.4145L114.203 91.6813C114.185 91.6991 114.15 91.7168 114.114 91.7168ZM114.38 65.17L114.292 91.238L122.857 86.1663L122.821 60.5061L114.38 65.17Z" fill="black"/>
<path d="M95.7601 35.2009L58.2363 14.0273L67.1917 8.84912L104.538 30.1114L95.8133 35.2363" fill="white"/>
<path d="M95.8133 35.4136C95.7601 35.4136 95.7069 35.3781 95.6715 35.3426L58.1477 14.169C58.0945 14.1336 58.0591 14.0804 58.0591 14.0094C58.0591 13.9385 58.0945 13.8853 58.1477 13.8498L67.1031 8.68944C67.1563 8.65398 67.2272 8.65398 67.2804 8.68944L104.627 29.9517C104.68 29.9872 104.715 30.0404 104.715 30.1113C104.715 30.1822 104.68 30.2354 104.627 30.2709L95.902 35.4136C95.8843 35.4136 95.8488 35.4136 95.8133 35.4136ZM58.5911 14.0094L95.8311 35.0234L104.183 30.1113L67.1917 9.04411L58.5911 14.0094Z" fill="black"/>
<path d="M114.203 65.0637L95.7603 35.2008L104.538 30.1113L122.999 60.1871" fill="white"/>
<path d="M114.203 65.241C114.15 65.241 114.079 65.2055 114.043 65.1523L95.6183 35.2894C95.6006 35.2539 95.5829 35.2007 95.6006 35.1475C95.6183 35.0943 95.6361 35.0588 95.6893 35.0411L104.467 29.9516C104.556 29.8984 104.662 29.9339 104.716 30.0048L123.176 60.0806C123.229 60.1692 123.194 60.2756 123.123 60.3288C123.034 60.382 122.928 60.3466 122.874 60.2756L104.467 30.3418L96.0085 35.2539L114.362 64.9572C114.416 65.0459 114.38 65.1523 114.309 65.2055C114.274 65.2232 114.238 65.241 114.203 65.241Z" fill="black"/>
<path d="M58.2363 14.0271L95.7601 35.2007L114.203 64.9572L114.185 91.5395L95.9374 99.3244L58.2363 77.7962V14.0271Z" fill="white"/>
<path d="M95.9375 99.5018C95.902 99.5018 95.8843 99.5018 95.8488 99.4841L58.1477 77.9558C58.0945 77.9204 58.0591 77.8672 58.0591 77.7962V14.0094C58.0591 13.9385 58.0945 13.8853 58.1477 13.8498C58.2009 13.8144 58.2719 13.8144 58.3251 13.8498L95.8665 35.0234C95.8843 35.0412 95.9197 35.0589 95.9375 35.0766L114.38 64.8332C114.398 64.8686 114.416 64.8864 114.416 64.9218L114.398 91.5041C114.398 91.575 114.362 91.646 114.291 91.6637L96.0084 99.4841C95.9907 99.5018 95.9729 99.5018 95.9375 99.5018ZM58.4137 77.6898L95.9552 99.1294L114.008 91.4154L114.025 64.9928L95.636 35.3249L58.396 14.3286V77.6898H58.4137Z" fill="black"/>
<path d="M114.203 65.0637L122.999 60.187L123.034 86.255L114.114 91.5395L114.203 65.0637Z" fill="#595959"/>
<path d="M114.114 91.7168C114.079 91.7168 114.061 91.7168 114.026 91.6991C113.972 91.6636 113.937 91.6104 113.937 91.5395L114.026 65.0636C114.026 64.9927 114.061 64.9395 114.114 64.904L122.91 60.0273C122.963 59.9919 123.034 59.9919 123.087 60.0273C123.141 60.0628 123.176 60.116 123.176 60.1869L123.212 86.2549C123.212 86.3259 123.176 86.3791 123.123 86.4145L114.203 91.6813C114.185 91.6991 114.15 91.7168 114.114 91.7168ZM114.38 65.17L114.292 91.238L122.857 86.1663L122.821 60.5061L114.38 65.17Z" fill="black"/>
<path d="M95.7601 35.2009L58.2363 14.0273L67.1917 8.84912L104.538 30.1114L95.8133 35.2363" fill="#595959"/>
<path d="M95.8133 35.4136C95.7601 35.4136 95.7069 35.3781 95.6715 35.3426L58.1477 14.169C58.0945 14.1336 58.0591 14.0804 58.0591 14.0094C58.0591 13.9385 58.0945 13.8853 58.1477 13.8498L67.1031 8.68944C67.1563 8.65398 67.2272 8.65398 67.2804 8.68944L104.627 29.9517C104.68 29.9872 104.715 30.0404 104.715 30.1113C104.715 30.1822 104.68 30.2354 104.627 30.2709L95.902 35.4136C95.8843 35.4136 95.8488 35.4136 95.8133 35.4136ZM58.5911 14.0094L95.8311 35.0234L104.183 30.1113L67.1917 9.04411L58.5911 14.0094Z" fill="black"/>
<path d="M114.203 65.0637L95.7603 35.2008L104.538 30.1113L122.999 60.1871" fill="#595959"/>
<path d="M114.203 65.241C114.15 65.241 114.079 65.2055 114.043 65.1523L95.6183 35.2894C95.6006 35.2539 95.5829 35.2007 95.6006 35.1475C95.6183 35.0943 95.6361 35.0588 95.6893 35.0411L104.467 29.9516C104.556 29.8984 104.662 29.9339 104.716 30.0048L123.176 60.0806C123.229 60.1692 123.194 60.2756 123.123 60.3288C123.034 60.382 122.928 60.3466 122.874 60.2756L104.467 30.3418L96.0085 35.2539L114.362 64.9572C114.416 65.0459 114.38 65.1523 114.309 65.2055C114.274 65.2232 114.238 65.241 114.203 65.241Z" fill="black"/>
<path d="M58.2363 14.0271L95.7601 35.2007L114.203 64.9572L114.185 91.5395L95.9374 99.3244L58.2363 77.7962V14.0271Z" fill="#A4A4A4"/>
<path d="M95.9375 99.5018C95.902 99.5018 95.8843 99.5018 95.8488 99.4841L58.1477 77.9558C58.0945 77.9204 58.0591 77.8672 58.0591 77.7962V14.0094C58.0591 13.9385 58.0945 13.8853 58.1477 13.8498C58.2009 13.8144 58.2719 13.8144 58.3251 13.8498L95.8665 35.0234C95.8843 35.0412 95.9197 35.0589 95.9375 35.0766L114.38 64.8332C114.398 64.8686 114.416 64.8864 114.416 64.9218L114.398 91.5041C114.398 91.575 114.362 91.646 114.291 91.6637L96.0084 99.4841C95.9907 99.5018 95.9729 99.5018 95.9375 99.5018ZM58.4137 77.6898L95.9552 99.1294L114.008 91.4154L114.025 64.9928L95.636 35.3249L58.396 14.3286V77.6898H58.4137Z" fill="black"/>
<path d="M30.8026 30.5546L22.1487 25.5715L7.94434 98.4555L16.6337 103.545L30.8026 30.5546Z" fill="white"/>
<path d="M16.6339 103.722C16.5984 103.722 16.5629 103.722 16.5452 103.705L7.85588 98.6152C7.78495 98.5797 7.74948 98.5088 7.76721 98.4201L21.9716 25.5361C21.9893 25.4829 22.0248 25.4297 22.078 25.412C22.1312 25.3942 22.1844 25.3942 22.2376 25.412L30.8915 30.395C30.9624 30.4305 30.9979 30.5014 30.9801 30.5901L16.8112 103.581C16.7935 103.634 16.758 103.687 16.7048 103.705C16.6871 103.722 16.6693 103.722 16.6339 103.722ZM8.13961 98.3669L16.5097 103.279L30.6077 30.661L22.2731 25.8553L8.13961 98.3669Z" fill="black"/>
<path d="M58.3961 14.3818L30.8031 30.5546L22.1492 25.5716L49.8841 9.4165L58.3961 14.3818L72.6715 70.8448L16.7051 103.51L30.8031 30.5546L58.3961 14.3818Z" fill="white"/>
<path d="M16.7049 103.687C16.6694 103.687 16.634 103.669 16.5985 103.651C16.5453 103.616 16.5098 103.545 16.5276 103.474L30.6078 30.6432L22.0604 25.7134C22.0072 25.6779 21.9717 25.6247 21.9717 25.5538C21.9717 25.4828 22.0072 25.4296 22.0604 25.3942L49.7953 9.25682C49.8485 9.22136 49.9194 9.22136 49.9726 9.25682L58.4846 14.2222C58.5024 14.2399 58.5378 14.2576 58.5556 14.2754C58.5556 14.2754 58.5556 14.2754 58.5556 14.2931C58.5556 14.3108 58.5733 14.3286 58.5733 14.3286L72.8486 70.7738C72.8664 70.8447 72.8309 70.9334 72.76 70.9688L16.7936 103.669C16.7581 103.687 16.7404 103.687 16.7049 103.687ZM30.9625 30.661L16.9532 103.155L72.4585 70.756L58.2718 14.6655L30.9625 30.661ZM22.5037 25.5715L30.8029 30.3595L58.0413 14.3995L49.884 9.64696L22.5037 25.5715Z" fill="black"/>
<path d="M30.8027 30.5546L58.3781 14.3818L30.8027 30.5546Z" fill="white"/>
<path d="M30.8028 30.732C30.7496 30.732 30.6787 30.6965 30.6432 30.6433C30.6255 30.6079 30.6255 30.5901 30.6255 30.5547C30.6255 30.5015 30.661 30.4305 30.7142 30.3951L58.2895 14.2223C58.3782 14.1691 58.4846 14.2045 58.5378 14.2932C58.5555 14.3287 58.5555 14.3464 58.5555 14.3819C58.5555 14.4351 58.52 14.506 58.4668 14.5415L30.8915 30.7143C30.8738 30.7143 30.8383 30.732 30.8028 30.732Z" fill="black"/>
<path d="M30.8032 30.5544L16.6343 103.545L72.6716 70.8445L58.3963 14.3284L30.8032 30.5544Z" fill="white"/>
<path d="M16.6341 103.722C16.5986 103.722 16.5632 103.704 16.5277 103.687C16.4745 103.651 16.439 103.58 16.4568 103.509L30.6257 30.519C30.6434 30.4658 30.6612 30.4303 30.7144 30.3949L58.3074 14.1866C58.3606 14.1511 58.4138 14.1511 58.467 14.1689C58.5202 14.1866 58.5557 14.2398 58.5734 14.293L72.8488 70.7914C72.8665 70.8623 72.831 70.951 72.7601 70.9865L16.7228 103.704C16.705 103.722 16.6696 103.722 16.6341 103.722ZM30.9626 30.6609L16.8824 103.19L72.4586 70.7382L58.272 14.5945L30.9626 30.6609Z" fill="black"/>
<path d="M30.8026 30.5546L22.1487 25.5715L7.94434 98.4555L16.6337 103.545L30.8026 30.5546Z" fill="#A4A4A4"/>
<path d="M16.6339 103.722C16.5984 103.722 16.5629 103.722 16.5452 103.705L7.85588 98.6152C7.78495 98.5797 7.74948 98.5088 7.76721 98.4201L21.9716 25.5361C21.9893 25.4829 22.0248 25.4297 22.078 25.412C22.1312 25.3942 22.1844 25.3942 22.2376 25.412L30.8915 30.395C30.9624 30.4305 30.9979 30.5014 30.9801 30.5901L16.8112 103.581C16.7935 103.634 16.758 103.687 16.7048 103.705C16.6871 103.722 16.6693 103.722 16.6339 103.722ZM8.13961 98.3669L16.5097 103.279L30.6077 30.661L22.2731 25.8553L8.13961 98.3669Z" fill="black"/>
<path d="M58.3961 14.3818L30.8031 30.5546L22.1492 25.5716L49.8841 9.4165L58.3961 14.3818L72.6715 70.8448L16.7051 103.51L30.8031 30.5546L58.3961 14.3818Z" fill="#A4A4A4"/>
<path d="M16.7049 103.687C16.6694 103.687 16.634 103.669 16.5985 103.651C16.5453 103.616 16.5098 103.545 16.5276 103.474L30.6078 30.6432L22.0604 25.7134C22.0072 25.6779 21.9717 25.6247 21.9717 25.5538C21.9717 25.4828 22.0072 25.4296 22.0604 25.3942L49.7953 9.25682C49.8485 9.22136 49.9194 9.22136 49.9726 9.25682L58.4846 14.2222C58.5024 14.2399 58.5378 14.2576 58.5556 14.2754C58.5556 14.2754 58.5556 14.2754 58.5556 14.2931C58.5556 14.3108 58.5733 14.3286 58.5733 14.3286L72.8486 70.7738C72.8664 70.8447 72.8309 70.9334 72.76 70.9688L16.7936 103.669C16.7581 103.687 16.7404 103.687 16.7049 103.687ZM30.9625 30.661L16.9532 103.155L72.4585 70.756L58.2718 14.6655L30.9625 30.661ZM22.5037 25.5715L30.8029 30.3595L58.0413 14.3995L49.884 9.64696L22.5037 25.5715Z" fill="black"/>
<path d="M30.8027 30.5546L58.3781 14.3818L30.8027 30.5546Z" fill="white"/>
<path d="M30.8028 30.732C30.7496 30.732 30.6787 30.6965 30.6432 30.6433C30.6255 30.6079 30.6255 30.5901 30.6255 30.5547C30.6255 30.5015 30.661 30.4305 30.7142 30.3951L58.2895 14.2223C58.3782 14.1691 58.4846 14.2045 58.5378 14.2932C58.5555 14.3287 58.5555 14.3464 58.5555 14.3819C58.5555 14.4351 58.52 14.506 58.4668 14.5415L30.8915 30.7143C30.8738 30.7143 30.8383 30.732 30.8028 30.732Z" fill="black"/>
<path d="M30.8032 30.5544L16.6343 103.545L72.6716 70.8445L58.3963 14.3284L30.8032 30.5544Z" fill="#E2E2E2"/>
<path d="M16.6341 103.722C16.5986 103.722 16.5632 103.704 16.5277 103.687C16.4745 103.651 16.439 103.58 16.4568 103.509L30.6257 30.519C30.6434 30.4658 30.6612 30.4303 30.7144 30.3949L58.3074 14.1866C58.3606 14.1511 58.4138 14.1511 58.467 14.1689C58.5202 14.1866 58.5557 14.2398 58.5734 14.293L72.8488 70.7914C72.8665 70.8623 72.831 70.951 72.7601 70.9865L16.7228 103.704C16.705 103.722 16.6696 103.722 16.6341 103.722ZM30.9626 30.6609L16.8824 103.19L72.4586 70.7382L58.272 14.5945L30.9626 30.6609Z" fill="black"/>
<path d="M31.1575 126.226L22.3085 121.225L22.1489 57.0127L42.4536 45.4328L51.1961 50.5755L53.1645 56.4629L57.9703 36.5484L77.7252 25.0217L86.8046 30.1289L86.7337 94.1285L70.3304 103.722L64.9217 100.672L62.8115 107.872L55.1684 112.358L47.5431 108.315L47.5963 116.668L31.1575 126.226Z" fill="white"/>
<path d="M31.1577 126.403C31.1222 126.403 31.1045 126.403 31.069 126.385L22.2024 121.385C22.1492 121.349 22.1137 121.296 22.1137 121.225L21.9541 57.0126C21.9541 56.9417 21.9896 56.8885 22.0428 56.853L42.3474 45.2731C42.4006 45.2377 42.4716 45.2377 42.5248 45.2731L51.2673 50.4335C51.3028 50.4512 51.3382 50.4867 51.3382 50.5222L53.0938 55.8244L57.7754 36.4951C57.7932 36.4419 57.8109 36.4065 57.8641 36.3887L77.619 24.862C77.6722 24.8266 77.7432 24.8266 77.7964 24.862L86.8758 29.987C86.929 30.0225 86.9645 30.0756 86.9645 30.1466L86.8936 94.1284C86.8936 94.1994 86.8581 94.2526 86.8049 94.2881L70.4016 103.882C70.3484 103.917 70.2774 103.917 70.2242 103.882L65.0106 100.956L62.9536 107.943C62.9358 107.978 62.9181 108.031 62.8649 108.049L55.2218 112.536C55.1686 112.571 55.0977 112.571 55.0445 112.536L47.6674 108.617L47.7029 116.668C47.7029 116.738 47.6674 116.792 47.6142 116.827L31.1932 126.385C31.2286 126.385 31.1932 126.403 31.1577 126.403ZM22.4684 121.119L31.1577 126.013L47.4014 116.561L47.366 108.315C47.366 108.244 47.4014 108.191 47.4546 108.156C47.5078 108.12 47.5788 108.12 47.632 108.156L55.1864 112.163L62.6698 107.765L64.7624 100.637C64.7801 100.583 64.8156 100.548 64.8688 100.53C64.922 100.512 64.9752 100.512 65.0284 100.548L70.3484 103.545L86.5744 94.0575L86.6453 30.2707L77.7432 25.2522L58.1478 36.6902L53.3421 56.5338C53.3244 56.6047 53.2534 56.6579 53.1825 56.6757C53.0938 56.6757 53.0229 56.6224 53.0052 56.5515L51.0722 50.735L42.4716 45.6632L22.3442 57.1367L22.4684 121.119Z" fill="black"/>
<path d="M31.1572 126.102L31.1927 62.0134L51.1959 50.6996L58.9986 73.682L66.7126 41.8152L86.7335 30.1289V94.1285L70.5962 103.58L70.6316 80.4916L62.8112 107.872L55.1682 112.358L47.4719 93.7916L47.596 116.668L31.1572 126.102Z" fill="#EBFF29"/>
<path d="M31.1573 126.279C31.1218 126.279 31.1041 126.279 31.0686 126.261C31.0154 126.226 30.98 126.173 30.98 126.102L30.9977 62.0312C30.9977 61.9603 31.0332 61.9071 31.0864 61.8716L51.1073 50.5577C51.1605 50.54 51.2137 50.5223 51.2492 50.54C51.3024 50.5577 51.3378 50.5932 51.3556 50.6464L58.9632 73.0436L66.5353 41.7797C66.553 41.7265 66.5708 41.6911 66.624 41.6733L86.6449 29.987C86.6981 29.9516 86.769 29.9516 86.8222 29.987C86.8754 30.0225 86.9109 30.0757 86.9109 30.1466V94.1285C86.9109 94.1995 86.8754 94.2527 86.8222 94.2881L70.6849 103.74C70.6317 103.775 70.5608 103.775 70.5076 103.74C70.4544 103.705 70.4189 103.651 70.4189 103.58L70.4544 81.7684L62.9886 107.925C62.9709 107.961 62.9532 108.014 62.9 108.031L55.2569 112.518C55.2214 112.536 55.1505 112.553 55.115 112.536C55.0618 112.518 55.0264 112.483 55.0086 112.429L47.6493 94.696L47.7557 116.668C47.7557 116.739 47.7202 116.792 47.667 116.827L31.246 126.261C31.2282 126.261 31.1928 126.279 31.1573 126.279ZM31.3701 62.1199L31.3524 125.783L47.4188 116.561L47.2946 93.7916C47.2946 93.7029 47.3478 93.632 47.4365 93.6143C47.5252 93.5965 47.5961 93.6497 47.6316 93.7207L55.2569 112.11L62.6517 107.765L70.4544 80.4561C70.4721 80.3675 70.5608 80.3143 70.6494 80.332C70.7381 80.3497 70.809 80.4207 70.809 80.5093L70.7736 103.279L86.5562 94.0399V30.4481L66.8722 41.9393L59.176 73.7352C59.1582 73.8061 59.0873 73.8593 59.0164 73.8771C58.9454 73.8771 58.8745 73.8239 58.839 73.7529L51.1073 50.9833L31.3701 62.1199Z" fill="black"/>
</svg>
