<svg width="48" height="48" viewBox="0 0 48 48" fill="none" xmlns="http://www.w3.org/2000/svg">
<path d="M14.8339 35.9164H13.0561C12.8903 35.8764 12.7263 35.8164 12.5579 35.7981C6.789 35.1786 2.24811 30.6301 1.605 24.8244C0.794331 17.5048 6.27122 11.1999 13.6521 10.9537C20.4019 10.7315 26.2628 16.2995 26.3934 23.0635C26.509 29.0577 22.6134 34.1301 16.7903 35.5524C16.1472 35.7101 15.4863 35.7972 14.8339 35.9164Z" fill="white"/>
<path d="M45.6591 25.5688C45.5147 26.9071 45.4338 28.2559 45.2058 29.5799C45.0076 30.7355 44.6911 31.8742 44.3245 32.9871C44.2062 33.3462 43.7645 33.5991 43.4703 33.9004C43.1591 33.5839 42.6978 33.3186 42.5729 32.9413C42.204 31.8302 41.852 30.6866 41.7027 29.5288C41.1134 24.9711 41.0592 20.4088 41.9609 15.8773C42.1174 15.0915 42.4169 14.3248 42.7369 13.5866C42.8525 13.32 43.2223 12.9991 43.4756 12.9995C43.7289 13 44.1191 13.3288 44.2031 13.592C44.5902 14.8013 44.9814 16.0217 45.1991 17.2684C45.4476 18.6884 45.5138 20.14 45.6591 21.5795V25.5688Z" fill="white"/>
<path d="M27.6187 24.5928C27.5902 20.9955 27.9618 18.0559 29.3582 15.3435C29.795 14.49 30.3557 13.706 31.0222 13.0168C32.8231 11.1764 35.1085 11.2666 36.8542 13.1701C38.4556 14.9181 39.2142 17.0635 39.6445 19.3333C40.3782 23.207 40.1996 27.0221 38.7013 30.711C38.1498 32.0693 37.4098 33.3155 36.2351 34.2426C34.6449 35.5013 32.8409 35.4666 31.3178 34.1333C29.5293 32.5688 28.6862 30.4746 28.1867 28.239C27.8769 26.8524 27.744 25.427 27.6187 24.5928Z" fill="white"/>
</svg>
