<svg width="45" height="45" viewBox="0 0 45 45" fill="none" xmlns="http://www.w3.org/2000/svg">
<g clip-path="url(#clip0_1363_779)">
<path d="M25.3828 22.5C25.3828 29.4891 19.7016 35.1563 12.69 35.1563C11.0257 35.1585 9.37734 34.8329 7.83892 34.198C6.3005 33.5632 4.90218 32.6316 3.7238 31.4563C2.54543 30.2811 1.61007 28.8853 0.971139 27.3485C0.332208 25.8118 0.00221458 24.1643 0 22.5C0 15.5081 5.68125 9.84377 12.69 9.84377C14.3545 9.84118 16.0032 10.1665 17.5419 10.8012C19.0807 11.4359 20.4793 12.3674 21.658 13.5427C22.8367 14.718 23.7723 16.1139 24.4114 17.6509C25.0505 19.1878 25.3806 20.8355 25.3828 22.5V22.5ZM39.3047 22.5C39.3047 29.0813 36.4641 34.4138 32.9597 34.4138C29.4553 34.4138 26.6147 29.0785 26.6147 22.5C26.6147 15.9188 29.4553 10.5863 32.9597 10.5863C36.4641 10.5863 39.3047 15.9216 39.3047 22.5ZM45 22.5C45 28.395 44.0016 33.1735 42.7669 33.1735C41.535 33.1735 40.5366 28.3922 40.5366 22.5C40.5366 16.605 41.535 11.8266 42.7697 11.8266C44.0016 11.8266 45 16.605 45 22.5Z" fill="#D0D0D0"/>
</g>
<defs>
<clipPath id="clip0_1363_779">
<rect width="45" height="45" fill="white"/>
</clipPath>
</defs>
</svg>
