<svg width="69" height="69" viewBox="0 0 69 69" fill="none" xmlns="http://www.w3.org/2000/svg">
<path d="M18.541 51.0504C18.4142 51.0162 18.2648 50.9801 18.1049 50.9628C10.0476 50.0975 3.7026 43.7449 2.80372 35.6301C1.67063 25.3994 9.32075 16.5902 19.6411 16.2458C29.0646 15.9357 37.2577 23.7185 37.4402 33.1635C37.6018 41.5467 32.1593 48.6322 24.0165 50.621C23.3994 50.7724 22.7827 50.8751 22.1451 50.9812L22.1442 50.9814L22.1266 50.9843C21.8484 51.0307 21.5661 51.0777 21.2782 51.1299H18.8293C18.7817 51.1175 18.7361 51.1047 18.6861 51.0906C18.6426 51.0783 18.5956 51.0651 18.541 51.0504Z" stroke="white"/>
<path d="M64.4906 42.4366V42.437C64.2112 44.0656 63.764 45.6771 63.2416 47.2628L63.2415 47.2629C63.2003 47.388 63.0868 47.5336 62.8629 47.7351C62.7827 47.8073 62.7005 47.8764 62.6111 47.9516C62.579 47.9786 62.5459 48.0063 62.5117 48.0353C62.504 48.0418 62.4963 48.0484 62.4885 48.055C62.4744 48.043 62.4604 48.0311 62.4465 48.0194C62.4127 47.9908 62.3799 47.9632 62.348 47.9364C62.2521 47.8558 62.1637 47.7815 62.0779 47.7042C61.8433 47.4927 61.7194 47.3356 61.6733 47.1963L61.6731 47.1959C61.1435 45.6004 60.6515 43.9964 60.4436 42.3841L60.4435 42.3839C59.6012 35.8697 59.5263 29.3684 60.8092 22.9215C61.0233 21.8462 61.4362 20.7841 61.8931 19.7299C61.9356 19.6319 62.0502 19.4811 62.2078 19.3519C62.2827 19.2906 62.3544 19.245 62.4142 19.2166C62.4618 19.1941 62.4883 19.1887 62.4952 19.1875C62.502 19.1888 62.5303 19.1944 62.5813 19.2187C62.6439 19.2485 62.7178 19.2957 62.7924 19.3572C62.9558 19.4919 63.0463 19.6299 63.0657 19.6908L63.0658 19.6912C63.6242 21.4355 64.1751 23.1571 64.4812 24.9097L64.4813 24.9098C64.7264 26.3111 64.845 27.7211 64.9658 29.1574C65.0182 29.7815 65.0711 30.4105 65.135 31.046V36.7287C65.0719 37.3157 65.0176 37.8972 64.9637 38.4747C64.8389 39.8121 64.7161 41.1273 64.4906 42.4366Z" stroke="white"/>
<path d="M42.6476 22.2843L42.647 22.2854C40.6982 26.0707 40.1636 30.1913 40.2016 35.3134C40.2514 35.6487 40.3011 36.0376 40.3558 36.4651C40.5038 37.6209 40.6878 39.0592 41.0063 40.4849C41.7139 43.6514 42.8924 46.542 45.3485 48.6905C46.3696 49.5844 47.4561 50.0198 48.5282 50.0428C49.6007 50.0657 50.7099 49.6771 51.7777 48.8319C53.3724 47.5733 54.3945 45.8688 55.1699 43.9593C57.281 38.7614 57.538 33.3772 56.4976 27.8849C55.8878 24.6677 54.823 21.6867 52.6095 19.2703C51.4255 17.9793 50.0971 17.3426 48.8009 17.3037C47.5076 17.2649 46.1685 17.8187 44.9528 19.0606M42.6476 22.2843C43.2527 21.1018 44.0295 20.0155 44.9528 19.0606M42.6476 22.2843L44.9528 19.0606" stroke="white"/>
</svg>
