<svg width="103" height="103" viewBox="0 0 103 103" fill="none" xmlns="http://www.w3.org/2000/svg">
<path d="M47.102 24.3834L52.6852 26.7125L55.4782 27.8771C56.1479 28.1683 56.8996 28.407 57.3236 29.0417C57.5039 29.3575 57.6453 29.6938 57.7448 30.0432C59.2071 34.1193 72.1136 69.2926 73.4092 74.0616C73.5876 74.7166 72.7073 76.7285 71.4555 77.9163C69.9406 79.3721 67.8436 79.6487 65.8987 80.2106C63.5882 80.8773 40.5596 87.53 36.8745 88.613C34.9442 89.1808 33.2041 88.3044 32.5256 86.3974C29.8446 78.8626 27.1569 71.3287 24.4623 63.7958C23.1316 60.0691 16.8377 43.7067 16.8845 42.0297C16.9079 41.1359 17.408 40.408 17.8731 39.6831C18.42 38.8271 18.9406 37.9537 19.4787 37.089C20.5725 35.3246 21.6751 33.5632 22.7689 31.8018C23.9768 29.8831 28.1708 22.9247 29.4371 21.6029C30.6275 20.351 32.0371 18.2751 33.9118 19.1165C34.0756 19.1922 43.3789 22.8257 47.102 24.3834ZM32.0635 21.1808C31.3034 21.1898 30.5588 21.3953 29.9025 21.7771C29.2463 22.1588 28.7009 22.7038 28.3199 23.3585C24.8864 28.8903 21.4616 34.4221 17.9725 39.9189C17.1799 41.1708 16.984 42.3092 17.5104 43.73C19.2184 48.3126 20.8182 52.936 22.4648 57.542C24.7226 63.8695 26.9824 70.1971 29.2441 76.5247C30.414 79.8408 31.6043 83.157 32.8005 86.4673C33.0543 87.2188 33.5889 87.8443 34.2935 88.214C34.9982 88.5837 35.8187 88.6693 36.585 88.4529C40.4484 87.3465 44.3119 86.2198 48.1724 85.1018L57.9115 82.2835L69.5428 78.9179C69.9815 78.8018 70.3835 78.5769 70.7113 78.2643C71.0392 77.9517 71.2821 77.5616 71.4175 77.1302C71.71 76.315 71.4614 75.5435 71.1835 74.772C69.5847 70.3077 67.9889 65.8435 66.3959 61.3793C64.1303 55.0362 61.8646 48.6921 59.599 42.3471C58.3882 38.9581 57.1794 35.5702 55.9725 32.1832C55.639 31.2428 55.0951 30.4945 54.1299 30.0898C51.0152 28.7826 47.9092 27.4695 44.7974 26.139C41.4496 24.724 38.098 23.312 34.7424 21.9028C33.8826 21.5593 33.0315 21.1633 32.0635 21.1808Z" fill="#EBFF29" stroke="#202020" stroke-width="2" stroke-miterlimit="10"/>
<path d="M32.8504 28.5089C32.3651 28.4885 31.9073 28.2794 31.5752 27.9266C31.4064 27.7654 31.2712 27.5726 31.1773 27.3592C31.0835 27.1459 31.0328 26.9162 31.0283 26.6834C31.0459 25.7663 31.6337 25.1782 32.5989 25.1112H32.7334H32.6486L32.6954 25.2801C32.9352 26.1273 33.5377 26.6455 34.3127 26.6688H34.4531C34.4618 26.7258 34.4677 26.7831 34.4706 26.8406C34.4811 27.2627 34.3255 27.6721 34.037 27.9816C33.7485 28.2911 33.35 28.4761 32.9264 28.4972L32.8504 28.5089Z" fill="#EBFF29"/>
<path d="M32.5577 25.2742L32.5752 25.3412C32.8326 26.2495 33.4877 26.7969 34.33 26.8347H34.3476C34.3461 26.8473 34.3461 26.86 34.3476 26.8726C34.3549 27.2563 34.2118 27.6277 33.9486 27.9082C33.6855 28.1886 33.3229 28.356 32.9379 28.3749H32.8502C32.4043 28.3527 31.9847 28.1584 31.6803 27.8334C31.3689 27.5344 31.1882 27.1255 31.1773 26.695C31.1702 26.5104 31.2006 26.3264 31.2669 26.1539C31.3332 25.9813 31.4338 25.824 31.5628 25.6912C31.6918 25.5585 31.8464 25.4531 32.0174 25.3814C32.1884 25.3097 32.3722 25.2733 32.5577 25.2742ZM32.6864 24.983H32.6074C31.4727 25.0617 30.9199 25.7924 30.9023 26.7008C30.9319 27.2069 31.1462 27.6847 31.5049 28.0445C31.8636 28.4043 32.342 28.6212 32.8502 28.6544H32.935C33.3963 28.6296 33.8298 28.4269 34.1437 28.0895C34.4576 27.752 34.6272 27.3062 34.6166 26.8464C34.5823 26.3484 34.364 25.8806 34.0038 25.5334C33.6436 25.1861 33.167 24.9838 32.6659 24.9656L32.6864 24.983ZM34.3359 26.5494C33.6223 26.529 33.0754 26.0428 32.856 25.2655H32.9496C33.2934 25.2905 33.6183 25.4318 33.8704 25.6658C34.1226 25.8998 34.2868 26.2126 34.3359 26.5523V26.5494Z" fill="#202020"/>
<path d="M32.0635 21.1807C33.0315 21.1633 33.8826 21.5592 34.7424 21.9173C38.0941 23.3265 41.4457 24.7366 44.7974 26.1477C47.9092 27.4637 51.0152 28.7913 54.1299 30.0985C55.0951 30.5032 55.8291 31.333 56.2211 32.8819C57.4289 36.2679 58.3882 38.9668 59.599 42.3558C61.8627 48.7008 64.1283 55.0449 66.3959 61.388C67.9908 65.8522 69.5867 70.3164 71.1835 74.7807C71.476 75.5522 71.9205 77.1098 71.5725 77.4709C71.2567 78.3792 70.4787 78.6558 69.5428 78.9266L57.9115 82.2922L48.1724 85.1105C44.3119 86.2285 40.4484 87.3552 36.585 88.4616C35.8172 88.6774 34.9954 88.5903 34.2905 88.2183C33.5856 87.8463 33.052 87.2181 32.8005 86.4643C31.6043 83.154 30.4286 79.8379 29.2441 76.5217C26.9824 70.1961 24.7226 63.8685 22.4648 57.539C20.8182 52.9331 19.2184 48.3097 17.5104 43.7271C16.984 42.3063 17.1799 41.1679 17.9725 39.916C21.4616 34.4191 24.8864 28.8845 28.3199 23.3556C28.7013 22.7014 29.2468 22.157 29.903 21.7758C30.5593 21.3945 31.3037 21.1895 32.0635 21.1807ZM50.2782 72.2069C50.0471 71.5489 49.8424 70.9463 49.626 70.3465C49.5236 70.0554 49.5178 69.8982 49.8629 69.7642C50.4271 69.5261 50.9709 69.2428 51.489 68.917C52.9513 67.997 54.1212 66.812 54.6885 65.1175C55.1857 63.6036 54.9371 62.1449 54.4312 60.6921C53.4485 57.8767 51.4305 56.3541 48.4912 56.0513C47.3214 55.9319 46.1515 55.9581 44.9816 55.9406C44.8408 55.9597 44.6979 55.927 44.5794 55.8488C44.461 55.7706 44.3753 55.6521 44.3382 55.5155C43.5749 53.3436 42.7882 51.1804 42.0131 49.0143C41.7938 48.4058 41.5861 47.7973 41.3551 47.1364C42.133 47.1364 42.8437 47.0461 43.5222 47.1538C44.2616 47.2575 44.9656 47.535 45.5759 47.9634C46.1862 48.3917 46.6853 48.9585 47.0318 49.6169C47.1079 49.7509 47.3243 49.943 47.4062 49.9081C48.2163 49.7072 49.0176 49.4655 49.8161 49.2355C49.354 47.5411 47.7513 45.8437 46.014 45.1333C44.3957 44.4615 42.6208 44.2538 40.8901 44.5335C40.58 44.583 40.4192 44.519 40.3051 44.1987C40.1241 43.6491 39.9132 43.1097 39.6734 42.5829C39.6333 42.5134 39.5765 42.455 39.5081 42.4128C39.4397 42.3706 39.3618 42.346 39.2815 42.3412C38.7346 42.4722 38.2023 42.6702 37.6554 42.8158C37.3629 42.8915 37.3395 43.0196 37.4419 43.2758C37.6291 43.7591 37.7607 44.2657 37.9625 44.7315C38.1321 45.1304 38.1029 45.3691 37.6466 45.5176C37.3478 45.6375 37.0618 45.7868 36.7926 45.9631C34.0171 47.5352 32.7361 49.9547 33.3532 52.9506C33.9557 55.862 35.8129 57.9495 38.9101 58.4823C40.0873 58.6526 41.2741 58.7498 42.4635 58.7735C42.6112 58.7557 42.7603 58.7924 42.8826 58.8766C43.0049 58.9608 43.092 59.0868 43.1274 59.2306C44.0516 61.8509 45.005 64.4712 45.9438 67.109C46.0491 67.4001 46.1339 67.6913 46.2363 67.9999C45.1912 68.2849 44.0844 68.2517 43.0585 67.9045C42.0326 67.5573 41.1347 66.9121 40.4806 66.0521C40.2671 65.761 40.1062 65.3068 39.8313 65.2253C39.5564 65.1437 39.106 65.3621 38.7404 65.4698C38.2374 65.6183 37.7373 65.7813 37.2284 65.9386C37.2664 66.0754 37.281 66.1336 37.2986 66.1919C37.3151 66.2504 37.3357 66.3078 37.36 66.3636C37.8105 67.3608 38.475 68.2477 39.3067 68.962C40.1383 69.6762 41.117 70.2005 42.174 70.4979C43.6532 70.9025 45.2077 70.9524 46.7101 70.6435C47.0523 70.5823 47.2307 70.6435 47.3447 71.0074C47.5319 71.613 47.7864 72.1982 48.0233 72.8125C48.2397 72.7659 48.4181 72.7397 48.5907 72.6902C49.1259 72.5534 49.664 72.3904 50.2782 72.2069ZM32.5987 24.9627C31.4639 25.0413 30.9112 25.7721 30.8936 26.6805C30.9189 27.2067 31.1447 27.7035 31.5251 28.0697C31.9054 28.4359 32.4117 28.644 32.9409 28.6515C33.4022 28.6267 33.8357 28.4241 34.1496 28.0866C34.4635 27.7491 34.6331 27.3033 34.6225 26.8435C34.5884 26.3327 34.3601 25.854 33.9842 25.5047C33.6083 25.1554 33.1129 24.9616 32.5987 24.9627Z" fill="#FCFCFC" stroke="#202020" stroke-miterlimit="10"/>
<path d="M48.5821 67.4235C47.5438 64.512 46.5173 61.6413 45.4849 58.7531C45.5521 58.7065 45.5989 58.6483 45.6486 58.6483C47.111 58.6163 48.5733 58.6716 49.8894 59.3733C51.2698 60.0982 51.8957 61.3356 52.0829 62.8117C52.3461 64.8905 50.8896 66.4248 49.1582 67.1993C48.9798 67.2721 48.8102 67.3332 48.5821 67.4235Z" fill="#FCFCFC"/>
<path d="M39.042 47.7943C40.0188 50.5282 40.9635 53.1747 41.9667 55.9639C41.2969 55.9202 40.7266 55.9202 40.168 55.8358C38.9689 55.6552 37.8283 55.2797 37.024 54.3131C35.4125 52.3711 35.7723 49.9139 37.8517 48.4901C38.1997 48.2369 38.5975 48.0476 39.042 47.7943Z" fill="#FCFCFC"/>
<path d="M50.2783 72.2069C49.6642 72.3903 49.126 72.5534 48.582 72.7077C48.4095 72.7572 48.2311 72.7834 48.0147 72.83C47.7778 72.2156 47.5233 71.6304 47.3361 71.0249C47.2221 70.658 47.0437 70.5998 46.7015 70.6609C45.1991 70.9698 43.6446 70.9199 42.1654 70.5153C41.1084 70.2179 40.1297 69.6936 39.2981 68.9794C38.4664 68.2652 37.8019 67.3783 37.3514 66.3811C37.3271 66.3253 37.3065 66.2679 37.29 66.2093C37.2724 66.1511 37.2578 66.0928 37.2198 65.956C37.7287 65.7988 38.2288 65.6357 38.7318 65.4873C39.0974 65.3795 39.5127 65.1495 39.8227 65.2427C40.1327 65.3359 40.2585 65.7813 40.472 66.0696C41.1261 66.9296 42.024 67.5747 43.0499 67.9219C44.0758 68.2691 45.1826 68.3023 46.2277 68.0173C46.1341 67.7262 46.0493 67.4205 45.9352 67.1264C44.9964 64.5061 44.043 61.8858 43.1188 59.248C43.0834 59.1042 42.9963 58.9783 42.874 58.894C42.7517 58.8098 42.6026 58.7731 42.4549 58.7909C41.2655 58.7672 40.0787 58.67 38.9015 58.4998C35.8101 57.9524 33.953 55.8795 33.3446 52.968C32.7275 49.9663 34.0085 47.5469 36.784 45.9805C37.0532 45.8042 37.3392 45.655 37.638 45.535C38.0943 45.3866 38.1235 45.1478 37.9539 44.749C37.7521 44.2744 37.6205 43.7678 37.4333 43.2932C37.3309 43.037 37.3573 42.9089 37.6468 42.8332C38.1937 42.6876 38.726 42.4897 39.2729 42.3586C39.3532 42.3634 39.4311 42.388 39.4995 42.4302C39.5679 42.4724 39.6247 42.5308 39.6648 42.6003C39.9046 43.1271 40.1155 43.6666 40.2965 44.2162C40.3989 44.5364 40.5597 44.6005 40.8815 44.551C42.6125 44.2646 44.3895 44.4663 46.0113 45.1333C47.7514 45.8437 49.3542 47.541 49.8133 49.2355C49.0149 49.4655 48.2135 49.7072 47.4034 49.9081C47.3069 49.9313 47.1109 49.7392 47.0291 49.6169C46.6825 48.9585 46.1834 48.3916 45.5731 47.9633C44.9629 47.535 44.2589 47.2575 43.5195 47.1538C42.841 47.0461 42.1303 47.1363 41.3523 47.1363C41.5834 47.7972 41.791 48.4057 42.0104 49.0142C42.7854 51.1804 43.5721 53.3436 44.3355 55.5155C44.3725 55.6521 44.4583 55.7706 44.5767 55.8488C44.6951 55.927 44.8381 55.9596 44.9789 55.9406C46.1487 55.9581 47.3186 55.9406 48.4885 56.0512C51.4277 56.3424 53.4604 57.8767 54.4284 60.6921C54.9344 62.1478 55.183 63.6036 54.6858 65.1175C54.1301 66.812 52.9602 67.9969 51.4862 68.917C50.9681 69.2428 50.4243 69.5261 49.8601 69.7642C49.515 69.9098 49.5209 70.0786 49.6232 70.3465C49.8426 70.9462 50.0473 71.5489 50.2783 72.2069ZM48.582 67.4234C48.8102 67.3331 48.9798 67.272 49.1465 67.1992C50.9013 66.4248 52.3461 64.8904 52.0711 62.8116C51.884 61.3355 51.2581 60.0982 49.8777 59.3732C48.5469 58.6715 47.0963 58.6162 45.6369 58.6483C45.5872 58.6483 45.5404 58.7065 45.4731 58.7531C46.5172 61.6412 47.5438 64.5207 48.582 67.4234ZM39.0418 47.7943C38.5973 48.0476 38.1996 48.2369 37.8427 48.4814C35.7633 49.9139 35.4036 52.3711 37.0151 54.3044C37.8164 55.271 38.96 55.6465 40.1591 55.827C40.7177 55.9115 41.288 55.9115 41.9577 55.9552C40.9633 53.1747 40.0187 50.5282 39.0418 47.7943Z" fill="#202020"/>
</svg>
