<svg width="17" height="12" viewBox="0 0 17 12" fill="none" xmlns="http://www.w3.org/2000/svg">
<path d="M1.13672 0.551025C0.937806 0.551025 0.747041 0.630043 0.606389 0.770695C0.465736 0.911348 0.386719 1.10211 0.386719 1.30103C0.386719 1.49994 0.465736 1.6907 0.606389 1.83136C0.747041 1.97201 0.937806 2.05103 1.13672 2.05103H15.6367C15.8356 2.05103 16.0264 1.97201 16.167 1.83136C16.3077 1.6907 16.3867 1.49994 16.3867 1.30103C16.3867 1.10211 16.3077 0.911348 16.167 0.770695C16.0264 0.630043 15.8356 0.551025 15.6367 0.551025H1.13672ZM1.13672 3.55103C0.937806 3.55103 0.747041 3.63004 0.606389 3.7707C0.465736 3.91135 0.386719 4.10211 0.386719 4.30103C0.386719 4.49994 0.465736 4.6907 0.606389 4.83136C0.747041 4.97201 0.937806 5.05103 1.13672 5.05103H15.6367C15.8356 5.05103 16.0264 4.97201 16.167 4.83136C16.3077 4.6907 16.3867 4.49994 16.3867 4.30103C16.3867 4.10211 16.3077 3.91135 16.167 3.7707C16.0264 3.63004 15.8356 3.55103 15.6367 3.55103H1.13672ZM0.386719 7.30103C0.386719 7.10211 0.465736 6.91135 0.606389 6.7707C0.747041 6.63004 0.937806 6.55103 1.13672 6.55103H15.6367C15.8356 6.55103 16.0264 6.63004 16.167 6.7707C16.3077 6.91135 16.3867 7.10211 16.3867 7.30103C16.3867 7.49994 16.3077 7.6907 16.167 7.83136C16.0264 7.97201 15.8356 8.05103 15.6367 8.05103H1.13672C0.937806 8.05103 0.747041 7.97201 0.606389 7.83136C0.465736 7.6907 0.386719 7.49994 0.386719 7.30103ZM1.13672 9.55103C0.937806 9.55103 0.747041 9.63004 0.606389 9.7707C0.465736 9.91135 0.386719 10.1021 0.386719 10.301C0.386719 10.4999 0.465736 10.6907 0.606389 10.8314C0.747041 10.972 0.937806 11.051 1.13672 11.051H10.6367C10.8356 11.051 11.0264 10.972 11.167 10.8314C11.3077 10.6907 11.3867 10.4999 11.3867 10.301C11.3867 10.1021 11.3077 9.91135 11.167 9.7707C11.0264 9.63004 10.8356 9.55103 10.6367 9.55103H1.13672Z" fill="#FCFCFC"/>
</svg>
