<svg width="48" height="48" viewBox="0 0 48 48" fill="none" xmlns="http://www.w3.org/2000/svg">
<path d="M3.81787 38.9403C8.41245 39.3892 12.555 38.2461 16.237 35.4499C14.4411 35.365 12.8145 34.8159 11.3799 33.7454C9.9454 32.6749 8.95354 31.289 8.39158 29.6181C9.02768 29.6478 9.65355 29.6966 10.2794 29.7004C10.9053 29.7042 11.515 29.5956 12.1204 29.4225C9.56664 28.8034 7.63234 27.3756 6.37974 25.0703C5.70402 23.8262 5.39342 22.4854 5.4028 21.0338C6.5932 21.6754 7.83898 22.0297 9.17807 22.0687C7.38097 20.7869 6.18035 19.0985 5.68953 16.9494C5.19872 14.8002 5.51911 12.7656 6.60555 10.8295C11.1933 16.2153 16.9983 19.1639 24.0858 19.6544C24.0431 19.3998 24.0005 19.183 23.9686 18.9666C23.301 14.681 26.0989 10.4964 30.3334 9.52092C33.4436 8.80468 36.1538 9.60578 38.4353 11.8309C38.5312 11.9242 38.6142 11.9225 38.7254 11.8992C40.4716 11.5359 42.1494 10.9013 43.6975 10.0186C43.7601 9.98017 43.8272 9.94953 43.8973 9.92741C43.2472 11.895 42.0261 13.4157 40.2759 14.5329C41.9174 14.3426 43.5209 13.908 45.0328 13.2434C45.0192 13.2805 45.003 13.3165 44.9842 13.3512C43.8892 14.953 42.5284 16.3575 40.9601 17.5044C40.9178 17.532 40.8843 17.5711 40.8634 17.617C40.8426 17.6629 40.8354 17.7138 40.8425 17.7636C40.9089 19.3368 40.8102 20.9126 40.5481 22.4654C40.1355 24.948 39.348 27.3541 38.2125 29.602C36.3472 33.2999 33.7449 36.3651 30.3062 38.7086C28.2568 40.1058 26.029 41.1238 23.6392 41.795C22.1694 42.2079 20.6709 42.4655 19.152 42.6131C19.1059 42.618 19.0595 42.6205 19.0131 42.6208C17.5415 42.6208 16.0674 42.6721 14.5992 42.6029C13.6457 42.558 12.6922 42.3789 11.7532 42.1892C9.1768 41.6686 6.76277 40.7143 4.49871 39.3845C4.27205 39.2517 4.04879 39.1121 3.82469 38.9751C3.82085 38.9712 3.82171 38.9568 3.81787 38.9403Z" fill="white"/>
</svg>
