<svg width="54" height="54" viewBox="0 0 54 54" fill="none" xmlns="http://www.w3.org/2000/svg">
<path d="M53.1968 11.1082C51.318 11.9407 49.2998 12.5032 47.178 12.7574C49.3673 11.4475 51.0051 9.38573 51.786 6.95693C49.7292 8.17866 47.4781 9.03862 45.1305 9.49943C43.5519 7.81388 41.4609 6.69666 39.1823 6.32125C36.9036 5.94583 34.5647 6.33321 32.5288 7.42325C30.4929 8.51329 28.8738 10.245 27.9229 12.3495C26.972 14.454 26.7425 16.8136 27.27 19.0619C23.1023 18.8527 19.0252 17.7694 15.3032 15.8825C11.5813 13.9955 8.29767 11.347 5.66553 8.10893C4.76553 9.66143 4.24803 11.4614 4.24803 13.3784C4.24702 15.1042 4.672 16.8035 5.48525 18.3256C6.29851 19.8477 7.47489 21.1455 8.91003 22.1039C7.24565 22.051 5.61799 21.6012 4.16253 20.7922V20.9272C4.16236 23.3476 4.9996 25.6935 6.53219 27.5669C8.06478 29.4403 10.1983 30.7258 12.5708 31.2052C11.0268 31.623 9.40804 31.6846 7.83678 31.3852C8.50615 33.4678 9.81002 35.289 11.5659 36.5938C13.3217 37.8985 15.4416 38.6216 17.6288 38.6617C13.9159 41.5764 9.33052 43.1574 4.61028 43.1504C3.77413 43.1507 2.9387 43.1018 2.10828 43.0042C6.8996 46.0848 12.477 47.7198 18.1733 47.7134C37.4558 47.7134 47.997 31.7429 47.997 17.8919C47.997 17.4419 47.9858 16.9874 47.9655 16.5374C50.0159 15.0546 51.7858 13.2184 53.1923 11.1149L53.1968 11.1082Z" fill="url(#paint0_linear_687_3562)"/>
<defs>
<linearGradient id="paint0_linear_687_3562" x1="27.6525" y1="6.18176" x2="27.6525" y2="47.7135" gradientUnits="userSpaceOnUse">
<stop stop-color="#EDEDED"/>
<stop offset="1" stop-color="#EDEDED"/>
</linearGradient>
</defs>
</svg>
